<?xml version="1.0" encoding="utf-8"?>
<!-- Generator: Adobe Illustrator 16.0.0, SVG Export Plug-In . SVG Version: 6.00 Build 0)  -->
<!DOCTYPE svg PUBLIC "-//W3C//DTD SVG 1.1//EN" "http://www.w3.org/Graphics/SVG/1.1/DTD/svg11.dtd">
<svg version="1.1" xmlns="http://www.w3.org/2000/svg" xmlns:xlink="http://www.w3.org/1999/xlink" x="0px" y="0px" width="176px"
	 height="162px" viewBox="0 0 176 162" enable-background="new 0 0 176 162" xml:space="preserve">
<g id="Layer_16_copy_xA0_Image_1_">
	<g>
		<path d="M9.578,144.412c0-0.932,0-1.864,0-2.795c0.382-0.315,0.748-0.838,1.151-0.902c0.825-0.133,1.67,0,2.506-0.013
			c0.672-0.01,1.356,0.103,1.985-0.431c0.144-0.122,0.395,0.019,0.597,0.019c0.238-0.002,0.478-0.006,0.714-0.048
			c0.119-0.021,0.239-0.208,0.343-0.185c0.621,0.142,1.238,0.319,1.855,0.492c0.179,0.05,0.352,0.174,0.531,0.187
			c1.64,0.125,3.218-0.451,4.813-0.848c0.688-0.172,1.397-0.193,2.099-0.234c0.374-0.021,0.751,0.09,1.126,0.089
			c0.335-0.002,0.67-0.089,1.006-0.116c0.379-0.031,0.762-0.001,1.138-0.063c0.521-0.087,1.039-0.224,1.555-0.362
			c0.208-0.056,0.437-0.11,0.607-0.27c0.876-0.82,1.832-1.534,2.872-1.079c1.206,0.529,2.318-0.295,3.479-0.148
			c0.143,0.018,0.318-0.144,0.446-0.282c0.287-0.311,0.515-0.792,0.833-0.969c1.133-0.629,2.281-1.188,3.551-0.893
			c0.299,0.069,0.644-0.243,0.966-0.383c0.35-0.153,0.697-0.322,1.05-0.465c0.742-0.3,1.657-0.31,2.188-0.95
			c0.648-0.783,1.261-0.815,1.997-0.894c0.995-0.107,1.875-0.635,2.563-1.779c0.408-0.676,0.938-1.282,1.498-1.678
			c0.445-0.312,1.021-0.338,1.54-0.343c0.758-0.006,1.345-0.88,2.134-0.721c0.249,0.049,0.538-0.131,0.786-0.279
			c0.438-0.261,0.852-0.809,1.286-0.83c1.158-0.055,1.764-1.622,2.829-1.853c0.065-0.014,0.115-0.167,0.219-0.326
			c-0.212-0.099-0.361-0.212-0.516-0.23c-0.884-0.101-1.753-0.24-2.521-0.964c-0.17-0.159-0.421-0.159-0.637-0.207
			c-0.87-0.195-1.738-0.422-2.613-0.55c-0.403-0.059-0.849-0.026-1.228,0.161c-0.593,0.291-1.092,0.15-1.636-0.208
			c-0.652-0.429-1.33-0.804-2.019-1.091c-0.992-0.414-2.008-0.714-3.01-1.087c-0.88-0.329-1.751-0.703-2.632-1.029
			c-0.262-0.098-0.599-0.265-0.804-0.123c-0.609,0.425-1.162,0.217-1.748-0.032c-0.539-0.229-1.106-0.327-1.637-0.582
			c-0.76-0.364-1.493-0.847-2.29-0.154c-0.111,0.097-0.287,0.062-0.433,0.064c-0.46,0.008-0.921-0.004-1.381,0.005
			c-0.645,0.01-1.221-0.22-1.708-0.852c-0.112-0.146-0.281-0.253-0.434-0.28c-0.604-0.107-1.216-0.138-1.817-0.271
			c-0.504-0.112-1.085,0.125-1.484-0.574c-0.046-0.083-0.168-0.104-0.257-0.115c-0.96-0.121-1.943-0.092-2.876-0.387
			c-0.924-0.292-1.793-0.916-2.691-1.375c-0.215-0.109-0.474-0.26-0.672-0.184c-0.594,0.229-1.121,0.164-1.619-0.37
			c-0.141-0.151-0.315-0.258-0.487-0.332c-0.558-0.24-1.118-0.465-1.682-0.673c-0.315-0.117-0.638-0.254-0.96-0.268
			c-1.071-0.043-1.962-0.866-2.947-1.277c-0.017-0.006-0.031-0.027-0.045-0.044c-0.609-0.763-1.188-1.584-1.838-2.271
			c-0.522-0.551-0.94-1.12-1.31-1.923c-0.351-0.76-0.863-1.409-1.258-2.203c-0.618-1.239-0.627-2.515-0.398-3.791
			c0.271-1.507,0.876-2.81,1.652-3.956c0.801-1.185,1.56-2.426,2.315-3.668c0.294-0.484,0.567-1.008,0.783-1.566
			c0.235-0.609,0.599-1.245,0.247-2c-0.404-0.863-0.941-1.501-1.639-1.876c-0.265-0.143-0.558-0.314-0.744-0.595
			c-0.523-0.794-1.012-1.634-1.485-2.488c-0.459-0.829-0.519-1.852-0.2-2.705c0.389-1.041,0.884-2.05,1.717-2.58
			c0.153-0.098,0.338-0.505,0.305-0.699c-0.099-0.556-0.311-1.072-0.461-1.613c-0.325-1.171-1.25-1.228-1.837-1.927
			c-0.321-0.382-0.582-0.621-0.557-1.25c0.023-0.593,0.014-1.19,0.01-1.785c-0.004-0.762,0.346-1.229,0.716-1.654
			c0.237-0.272,0.512-0.495,0.79-0.676c0.579-0.378,1.156-0.932,1.763-1.016c0.956-0.134,1.705-0.75,2.453-1.449
			c1.298-1.211,0.889-3.344,0.024-4.395c-0.613-0.744-1.215-1.486-1.879-2.152c-0.692-0.695-1.22-1.713-1.909-2.418
			c-0.458-0.469-0.732-0.979-0.832-1.716c-0.181-1.357-0.216-2.589,0.69-3.63c0.458-0.526,0.956-0.858,1.441-1.265
			c1.015-0.849,2.091-1.256,3.298-1.275c1.625-0.026,3.25-0.297,4.874-0.467c0.072-0.007,0.143-0.046,0.211-0.08
			c1.037-0.506,2.074-1.013,3.109-1.524c0.205-0.102,0.409-0.215,0.606-0.343c0.717-0.462,1.473-0.842,2.134-1.43
			c0.539-0.48,0.365-1.617-0.222-1.931c-0.474-0.253-0.952-0.491-1.418-0.765c-0.47-0.277-0.673-1.005-0.54-1.838
			c0.131-0.818,0.524-1.318,1.01-1.359c0.303-0.024,0.636-0.04,0.894-0.227c0.48-0.349,0.943-0.656,1.503-0.59
			c0.251,0.029,0.514-0.015,0.763-0.085c0.361-0.102,0.709-0.313,1.072-0.374c0.399-0.067,0.81,0.008,1.214-0.027
			c0.169-0.014,0.386-0.083,0.49-0.245c0.319-0.493,0.601-1.034,0.884-1.57c0.306-0.579,0.549-1.239,0.905-1.746
			c1.003-1.429,2.029-2.832,3.085-4.183c1.216-1.556,2.474-3.045,3.713-4.564c0.028-0.034,0.055-0.073,0.088-0.093
			c0.756-0.47,1.342-1.243,1.943-2.022c0.433-0.56,1.013-0.895,1.525-1.336c0.979-0.841,1.954-1.69,2.934-2.528
			c0.619-0.529,1.241-1.051,1.869-1.558c0.306-0.247,0.624-0.469,0.945-0.672c0.532-0.337,1.159-0.504,1.587-1.008
			c0.634-0.744,1.396-0.586,2.078-0.926c0.246-0.123,0.481-0.285,0.725-0.42c0.43-0.24,0.862-0.473,1.292-0.71
			c0.28-0.154,0.562-0.299,0.836-0.472c0.13-0.082,0.232-0.269,0.364-0.322c0.5-0.202,1.006-0.378,1.513-0.544
			c1.182-0.386,2.361-0.801,3.551-1.134c5.009-1.405,10.071-2.25,15.164-2.757c0.933-0.091,1.865-0.202,2.796-0.305
			c3.28,0,6.558,0,9.838,0c0.235,0.047,0.468,0.117,0.704,0.136c1.03,0.082,2.062,0.121,3.09,0.229
			c5.46,0.573,10.876,1.574,16.222,3.26c0.125,0.039,0.254,0.04,0.379,0.074c0.268,0.069,0.584,0.042,0.787,0.241
			c0.83,0.811,1.949,0.597,2.729,1.565c0.053,0.067,0.18,0.038,0.27,0.027c0.557-0.071,0.979,0.304,1.393,0.764
			c0.16,0.178,0.371,0.304,0.572,0.361c0.529,0.15,1.066,0.238,1.6,0.38c0.115,0.031,0.207,0.203,0.322,0.279
			c0.652,0.441,1.309,0.872,1.963,1.305c0.223,0.148,0.459,0.27,0.67,0.449c0.648,0.556,1.279,1.155,1.936,1.694
			c0.504,0.415,1.053,0.727,1.553,1.152c0.811,0.688,1.605,1.418,2.393,2.16c0.312,0.294,0.59,0.665,0.879,1.007
			c0.119,0.14,0.221,0.316,0.344,0.448c0.693,0.744,1.391,1.477,2.086,2.217c0.102,0.109,0.191,0.241,0.291,0.354
			c0.686,0.766,1.402,1.48,2.049,2.306c0.826,1.057,1.592,2.209,2.393,3.311c0.9,1.24,1.873,2.368,2.482,3.991
			c0.355,0.946,0.904,1.645,1.812,1.438c0.443-0.101,0.996-0.18,1.35,0.103c0.43,0.342,0.826,0.308,1.254,0.369
			c0.283,0.041,0.561,0.162,0.838,0.268c0.447,0.171,0.896,0.521,1.338,0.501c0.66-0.027,0.824,0.612,0.992,1.196
			c0.174,0.603,0.219,1.334-0.232,1.768c-0.414,0.399-0.881,0.777-1.363,0.937c-0.465,0.153-0.818,0.456-0.814,1.042
			c0.004,0.413,0.266,1.004,0.531,1.199c0.824,0.608,1.697,1.101,2.57,1.569c0.436,0.234,0.914,0.306,1.367,0.477
			c0.156,0.059,0.293,0.217,0.447,0.289c0.629,0.287,1.254,0.596,1.896,0.817c0.312,0.108,0.682-0.067,0.984,0.069
			c1.223,0.545,2.475,0.379,3.721,0.462c0.709,0.047,1.502,0.083,2.1,0.536c0.904,0.687,1.967,1.111,2.615,2.384
			c0.137,0.27,0.367,0.472,0.451,0.765c0.375,1.274-0.061,3.273-0.85,4.086c-0.164,0.167-0.314,0.359-0.461,0.555
			c-0.49,0.653-0.955,1.345-1.467,1.961c-0.381,0.46-0.832,0.804-1.23,1.24c-0.238,0.263-0.418,0.63-0.654,0.9
			c-0.797,0.915-1.008,2.311-0.502,3.572c0.529,1.314,1.551,1.594,2.416,2.161c0.48,0.315,1.061,0.323,1.557,0.607
			c0.57,0.327,1.141,0.724,1.623,1.251c0.303,0.33,0.547,0.924,0.627,1.457c0.109,0.719,0.064,1.495,0.025,2.242
			c-0.014,0.259-0.17,0.583-0.33,0.732c-0.428,0.402-0.887,0.752-1.35,1.074c-0.816,0.567-0.811,1.813-1.17,2.755
			c-0.035,0.097,0.121,0.453,0.242,0.535c0.697,0.478,1.16,1.237,1.566,2.151c0.488,1.097,0.52,2.361-0.049,3.337
			c-0.406,0.698-0.803,1.409-1.238,2.071c-0.217,0.331-0.484,0.699-0.773,0.814c-0.721,0.283-1.23,0.919-1.668,1.692
			c-0.281,0.494-0.377,1.072-0.062,1.635c0.621,1.114,0.963,2.489,1.773,3.443c0.57,0.669,1.01,1.559,1.494,2.366
			c1.021,1.707,1.928,3.401,1.768,5.908c-0.074,1.148-0.545,1.858-0.842,2.737c-0.297,0.876-1.168,1.228-1.277,2.372
			c-0.008,0.058-0.076,0.106-0.119,0.154c-0.611,0.677-1.215,1.371-1.838,2.024c-0.479,0.502-0.965,1.006-1.486,1.414
			c-0.373,0.291-0.805,0.431-1.213,0.628c-0.137,0.066-0.281,0.147-0.42,0.143c-1.145-0.035-2.17,0.659-3.248,1.019
			c-0.207,0.068-0.416,0.208-0.59,0.384c-0.486,0.496-1,0.591-1.568,0.342c-0.164-0.073-0.381-0.141-0.521-0.052
			c-0.641,0.41-1.25,0.918-1.895,1.305c-0.342,0.205-0.734,0.281-1.109,0.338c-0.922,0.144-1.848,0.234-2.77,0.368
			c-0.137,0.021-0.26,0.179-0.396,0.25c-0.244,0.128-0.488,0.299-0.744,0.348c-0.73,0.14-1.477,0.156-2.195,0.362
			c-0.4,0.115-0.742,0.601-1.141,0.767c-1.133,0.47-2.279,0.688-3.414-0.049c-0.104-0.067-0.256-0.046-0.375-0.006
			c-0.971,0.328-1.934,0.708-2.91,0.995c-0.621,0.182-1.246,0.754-1.898,0.107c-0.066-0.063-0.186-0.058-0.271-0.03
			c-0.996,0.327-1.994,0.637-2.982,1.009c-0.857,0.324-1.699,0.733-2.553,1.087c-0.852,0.355-1.758,0.551-2.547,1.087
			c-0.5,0.34-0.951,0.597-1.496,0.579c-2.57-0.083-5.141-0.167-7.713-0.229c-0.414-0.009-0.828,0.093-1.32,0.153
			c0.621,1.137,1.17,2.142,2.162,2.424c0.246,0.07,0.453,0.414,0.674,0.637c0.146,0.147,0.273,0.353,0.436,0.444
			c0.689,0.388,1.377,0.794,2.088,1.093c0.496,0.21,1.029,0.257,1.543,0.381c0.105,0.026,0.209,0.072,0.311,0.114
			c0.518,0.213,1.045,0.648,1.545,0.597c1.223-0.125,2.002,0.821,2.688,1.949c0.742,1.222,1.658,1.792,2.756,1.843
			c0.67,0.032,1.336-0.048,1.758,0.908c0.049,0.11,0.178,0.166,0.279,0.212c0.375,0.177,0.748,0.363,1.131,0.499
			c0.295,0.105,0.609,0.114,0.908,0.215c0.324,0.11,0.639,0.28,0.959,0.42c0.354,0.154,0.738,0.511,1.055,0.418
			c1.01-0.293,1.916,0.28,2.859,0.508c0.332,0.081,0.686,0.403,0.92,0.757c0.422,0.628,0.881,0.974,1.498,0.95
			c0.309-0.012,0.619,0.066,0.928,0.095c0.541,0.049,1.096,0.221,1.619,0.108c0.984-0.211,1.898-0.342,2.777,0.581
			c0.367,0.386,0.895,0.493,1.359,0.668c0.436,0.164,0.885,0.286,1.332,0.357c0.395,0.063,0.795,0.02,1.191,0.045
			c0.303,0.018,0.604,0.068,0.906,0.108c0.139,0.019,0.291,0.11,0.414,0.057c0.943-0.415,1.879-0.064,2.807,0.099
			c0.877,0.152,1.73,0.599,2.607,0.716c0.904,0.121,1.947,0.382,2.709-0.103c1.168-0.745,2.303,0.214,3.398-0.354
			c0.037-0.018,0.104,0.054,0.148,0.096c0.664,0.597,1.404,0.475,2.137,0.464c0.838-0.013,1.678-0.061,2.51,0.022
			c0.711,0.071,0.986,0.596,0.986,1.58c0.002,0.518,0.049,1.047-0.014,1.549c-0.047,0.363-0.186,0.783-0.383,1.011
			c-0.438,0.511-1.148,0.374-1.49,1.172c-0.02,0.045-0.104,0.031-0.156,0.052c-0.213,0.085-0.43,0.162-0.639,0.262
			c-0.555,0.261-1.125,0.808-1.65,0.731c-0.648-0.093-0.971,0.34-1.393,0.78c-0.496,0.518-0.92,1.082-1.697,0.986
			c-0.828-0.101-1.762-0.388-2.541,0.548c-0.252,0.303-0.656,0.508-0.988,0.498c-0.828-0.025-1.551,0.462-2.32,0.694
			c-1.082,0.327-2.131,0.929-3.305,0.733c-0.887-0.147-1.805,0.095-2.709,0.168c-0.07,0.005-0.152,0.019-0.205,0.074
			c-0.467,0.495-0.988,0.528-1.535,0.391c-0.121-0.03-0.254-0.051-0.371-0.018c-0.438,0.123-0.867,0.288-1.307,0.402
			c-0.496,0.129-0.986,0.088-1.508,0.324c-0.469,0.212-1.154,0.028-1.746,0.058c-0.176,0.009-0.375-0.115-0.527-0.038
			c-0.439,0.223-0.807,0.074-1.215-0.181c-0.434-0.272-0.9-0.597-1.363,0.067c-0.137,0.197-0.451,0.252-0.67,0.211
			c-0.279-0.052-0.535-0.345-0.814-0.398c-0.787-0.148-1.58-0.257-2.373-0.32c-0.445-0.036-0.904,0.139-1.342,0.058
			c-0.641-0.119-1.275-0.349-1.9-0.595c-0.617-0.244-1.211-0.528-1.871-0.251c-0.248,0.106-0.574,0.104-0.811-0.032
			c-0.455-0.26-1.061,0.403-1.406-0.462c-0.008-0.018-0.16,0.1-0.246,0.117c-0.105,0.02-0.262,0.063-0.312-0.014
			c-0.334-0.495-0.656-0.232-1.004-0.048c-0.123,0.064-0.363,0.041-0.424-0.074c-0.461-0.874-1.066-0.761-1.699-0.574
			c-0.289,0.085-0.586,0.11-0.559-0.501c0.031-0.69-0.225-0.925-0.672-0.909c-0.328,0.011-0.658,0.034-0.986-0.001
			c-0.445-0.045-0.889-0.123-1.33-0.218c-0.307-0.067-0.605-0.19-0.908-0.284c-0.176-0.054-0.355-0.083-0.525-0.152
			c-1.049-0.427-2.082-0.932-3.145-1.269c-0.67-0.213-1.357-0.21-1.902-0.949c-0.238-0.325-0.559-0.572-0.873-0.736
			c-0.688-0.358-1.398-0.629-2.096-0.956c-0.328-0.154-0.672-0.566-0.963-0.494c-0.699,0.174-1.184-0.243-1.697-0.765
			c-0.375-0.38-0.797-0.876-1.219-0.918c-1.061-0.107-1.748-0.886-2.326-2.01c-0.258-0.499-0.514-0.94-1.033-0.981
			c-0.285-0.022-0.574-0.328-0.828-0.576c-0.451-0.441-0.906-0.73-1.481-0.578c-0.189,0.049-0.416-0.099-0.609-0.209
			c-0.166-0.095-0.313-0.261-0.463-0.405c-0.535-0.516-1.129-0.952-1.584-1.583c-0.332-0.459-0.65-0.57-1.066-0.58
			c-0.356-0.009-0.725-0.034-1.063-0.174c-0.396-0.165-0.755-0.483-1.141-0.695c-0.638-0.352-1.152-0.807-1.35-1.848
			c-0.073-0.389-0.398-0.746-0.668-0.985c-0.32-0.285-0.707-0.423-1.063-0.633c-0.677-0.397-1.5-0.329-2.012-1.275
			c-0.054-0.099-0.362-0.098-0.418,0.003c-0.517,0.931-1.334,0.882-2.014,1.273c-0.689,0.397-1.501,0.611-1.778,1.759
			c-0.176,0.726-0.479,1.193-0.954,1.479c-0.382,0.231-0.795,0.38-1.158,0.66c-0.462,0.355-0.907,0.561-1.454,0.469
			c-0.285-0.047-0.663,0.134-0.888,0.399c-0.951,1.116-1.806,2.444-3.214,2.292c-0.102-0.011-0.216,0.065-0.313,0.134
			c-0.486,0.345-0.946,0.883-1.459,1.01c-0.668,0.166-0.979,0.766-1.342,1.405c-0.486,0.857-1.044,1.521-1.902,1.591
			c-0.364,0.03-0.72,0.394-1.065,0.643c-0.5,0.362-0.971,0.809-1.486,1.118c-0.24,0.144-0.572-0.038-0.828,0.077
			c-1.048,0.474-2.083,0.999-3.119,1.523c-0.164,0.084-0.296,0.282-0.451,0.409c-0.4,0.327-0.778,0.766-1.21,0.941
			c-1.043,0.423-2.15,0.583-3.16,1.113c-0.798,0.42-1.703,0.143-2.426,0.88c-0.037,0.038-0.108,0.012-0.163,0.014
			c-0.65,0.029-1.3,0.073-1.951,0.08c-0.445,0.004-0.711,0.216-0.674,0.909c0.03,0.54-0.223,0.616-0.502,0.52
			c-0.678-0.234-1.305-0.305-1.794,0.611c-0.054,0.103-0.33,0.027-0.485-0.042c-0.297-0.133-0.526-0.191-0.865,0.029
			c-0.354,0.229-0.839,0.038-1.178,0.516c-0.027,0.039-0.163-0.101-0.251-0.113c-0.154-0.021-0.311-0.017-0.466-0.003
			c-0.29,0.025-0.606,0.189-0.863,0.077c-0.998-0.438-1.851,0.345-2.77,0.548c-0.607,0.135-1.271,0.58-1.807,0.371
			c-1.059-0.411-2.016,0.148-3.018,0.201c-0.191,0.009-0.464-0.009-0.554,0.149c-0.312,0.547-0.683,0.273-0.875,0.019
			c-0.499-0.662-0.948-0.26-1.422-0.052c-0.225,0.1-0.518,0.396-0.659,0.288c-0.607-0.465-1.321,0.416-1.888-0.344
			c-0.035-0.045-0.215,0.182-0.327,0.181c-0.264,0-0.529-0.047-0.791-0.106c-0.153-0.035-0.297-0.173-0.45-0.189
			c-1.052-0.117-2.105-0.212-3.159-0.315c-0.018-0.002-0.036-0.008-0.054-0.015c-0.605-0.216-1.182-0.443-1.844-0.421
			c-1.13,0.037-2.269-0.193-3.396-0.403c-0.7-0.13-1.388-0.409-2.075-0.659c-0.506-0.182-0.997-0.449-1.502-0.634
			c-0.22-0.079-0.483,0.03-0.688-0.084c-0.565-0.313-1.108-0.709-1.668-1.046c-0.105-0.063-0.25,0.019-0.375,0.004
			c-0.919-0.11-1.89,0.561-2.743-0.576c-0.485-0.645-1.001-1.216-1.849-1.175c-0.756,0.036-1.53-0.615-2.29-0.985
			c-0.11-0.053-0.183-0.243-0.281-0.356c-0.11-0.127-0.22-0.264-0.345-0.354C10.453,144.998,10.014,144.708,9.578,144.412z
			 M106.287,25.538c-0.166,0.706-0.127,1.124,0.227,1.458c1.127,1.061,2.242,2.143,3.363,3.215c0.27,0.26,0.574,0.472,0.809,0.788
			c0.846,1.146,1.668,2.329,2.502,3.493c0.131,0.181,0.291,0.317,0.42,0.5c0.246,0.355,0.51,0.701,0.713,1.101
			c0.539,1.057,0.965,2.257,1.594,3.187c0.961,1.418,1.883,2.853,2.633,4.505c0.119,0.264,0.428,0.488,0.656,0.503
			c0.883,0.059,1.768,0.015,2.652,0.032c0.193,0.004,0.393,0.077,0.576,0.168c0.402,0.198,0.785,0.494,1.197,0.629
			c0.535,0.176,1.152,1.16,1.199,1.932c0.078,1.3-0.508,2.229-0.898,3.251c-0.182,0.476-0.166,0.786,0.109,1.058
			c0.199,0.199,0.451,0.3,0.682,0.434c0.77,0.446,1.611,0.74,2.283,1.381c0.436,0.414,0.812,0.593,1.295,0.592
			c0.533,0,1.137-0.179,1.58,0.112c0.506,0.333,0.98,0.353,1.486,0.362c0.662,0.014,1.332,0.083,1.988-0.016
			c0.963-0.146,1.717,0.263,2.326,1.31c0.279,0.479,0.646,0.71,1.117,0.673c0.504-0.04,1.053,0.648,1.086,1.364
			c0.039,0.902,0.02,1.811,0.01,2.716c-0.002,0.127-0.078,0.267-0.143,0.378c-0.336,0.606-0.676,1.212-1.025,1.804
			c-0.369,0.625-0.67,1.503-1.146,1.797c-1.031,0.632-1.451,2.026-2.184,3.009c-0.246,0.331-0.383,1.163-0.264,1.603
			c0.127,0.473,0.58,0.855,0.949,1.098c0.576,0.377,1.074,1.101,1.807,0.898c0.09-0.024,0.207,0.193,0.32,0.28
			c0.365,0.285,0.74,0.548,1.102,0.846c0.434,0.357,0.889,0.683,1.271,1.129c0.418,0.49,0.35,3.035-0.057,3.571
			c-0.104,0.136-0.266,0.179-0.375,0.308c-0.264,0.307-0.529,0.617-0.76,0.97c-0.256,0.393-0.521,0.8-0.691,1.267
			c-0.148,0.405-0.264,0.925-0.213,1.351c0.031,0.258,0.406,0.437,0.629,0.644c0.162,0.15,0.418,0.238,0.479,0.441
			c0.217,0.749,0.393,1.527,0.531,2.312c0.051,0.273,0.031,0.695-0.09,0.882c-0.686,1.064-1.369,2.142-2.133,3.087
			c-0.596,0.739-1.293,1.359-1.529,2.465c-0.162,0.767-0.418,1.659,0.09,2.391c0.469,0.68,0.998,1.282,1.48,1.949
			c0.549,0.757,1.131,1.484,1.592,2.34c0.533,0.995,1.029,2.066,1.387,3.2c0.205,0.654,0.283,1.596,0.102,2.233
			c-0.256,0.908-0.775,1.685-1.236,2.457c-0.254,0.425-0.627,0.704-0.924,1.083c-0.348,0.443-0.609,1.041-1.18,1.007
			c-0.113-0.006-0.236,0.283-0.357,0.433c-0.438,0.54-0.842,1.147-1.32,1.601c-0.627,0.596-1.307,1.091-1.98,1.586
			c-0.312,0.23-0.654,0.391-0.994,0.532c-0.346,0.145-0.75,0.116-1.045,0.36c-0.559,0.466-1.139,0.496-1.75,0.48
			c-0.199-0.006-0.438,0.11-0.598,0.282c-0.465,0.498-0.922,0.712-1.527,0.466c-0.305-0.125-0.746-0.025-1.021,0.212
			c-0.838,0.724-1.76,1.114-2.695,1.098c-1.82-0.033-3.566,0.386-5.281,1.173c-0.139,0.063-0.293,0.103-0.436,0.081
			c-1.58-0.255-3.035,0.63-4.547,0.985c-0.414,0.097-0.818,0.258-1.227,0.396c-0.676,0.227-1.354,0.445-2.025,0.697
			c-0.26,0.097-0.553,0.199-0.746,0.435c-0.602,0.733-1.285,1.026-2.066,1.001c-0.113-0.003-0.23,0.133-0.346,0.204
			c0.016,0.09,0.031,0.18,0.045,0.27c1.387-0.219,2.779-0.373,4.154-0.673c1.715-0.375,3.41-0.929,5.127-1.292
			c1.34-0.284,2.699-0.404,4.053-0.572c0.428-0.053,0.873,0.116,1.215-0.466c0.088-0.148,0.342-0.119,0.521-0.138
			c1-0.106,2-0.201,2.998-0.31c0.086-0.01,0.164-0.114,0.25-0.146c0.596-0.223,1.186-0.507,1.791-0.641
			c0.875-0.193,1.826-0.041,2.629-0.468c0.922-0.489,1.818-0.495,2.748-0.534c0.262-0.011,0.531-0.137,0.779-0.273
			c0.939-0.513,1.816-1.331,2.891-1.171c0.504,0.075,0.908-0.178,1.322-0.577c0.318-0.304,0.736-0.519,1.117-0.544
			c1.062-0.069,2.025-0.5,2.936-1.245c0.18-0.146,0.412-0.178,0.621-0.236c0.195-0.054,0.402-0.044,0.594-0.114
			c0.686-0.248,1.389-0.464,1.785-1.438c0.037-0.096,0.15-0.147,0.236-0.188c0.826-0.384,1.527-0.973,1.883-2.169
			c0.037-0.131,0.145-0.228,0.225-0.329c0.287-0.356,0.645-0.645,0.85-1.075c0.375-0.775,0.66-1.716,0.357-2.605
			c-0.34-1-0.791-1.968-1.32-2.792c-0.924-1.436-1.996-2.684-2.902-4.14c-0.676-1.082-1.064-2.434-0.904-3.94
			c0.053-0.5,0.281-0.961,0.35-1.461c0.107-0.786,0.375-1.272,1-1.296c-0.125-0.932,0.268-1.416,0.707-1.892
			c0.422-0.456,0.801-0.989,1.219-1.455c1.064-1.184,0.623-2.632-0.465-3.281c-0.939-0.561-1.484-2.161-0.957-3.146
			c0.738-1.376,1.447-2.824,2.582-3.679c0.754-0.568,0.809-1.221,0.225-2.1c-0.24-0.361-2.049-1.386-2.395-1.478
			c-0.527-0.14-1.041-0.387-1.561-0.597c-0.119-0.048-0.229-0.169-0.35-0.193c-0.832-0.165-1.305-0.947-1.525-1.967
			c-0.512-2.357,0.148-4.354,1.186-6.111c0.588-1,1.359-1.782,2.002-2.725c0.551-0.81,1.074-1.671,1.537-2.581
			c0.334-0.652,0.146-1.521-0.416-1.893c-1.023-0.681-1.996-1.68-3.242-1.324c-0.07,0.02-0.146,0.001-0.221,0.003
			c-0.66,0.016-1.326,0.113-1.863-0.647c-0.107-0.152-0.342-0.135-0.52-0.18c-0.521-0.134-1.084-0.131-1.555-0.423
			c-0.588-0.365-1.17-0.355-1.773-0.397c-0.375-0.025-0.834-0.032-1.096-0.328c-0.482-0.548-0.996-0.411-1.516-0.488
			c-0.182-0.027-0.354-0.237-0.518-0.384c-0.568-0.502-1.09-1.193-1.707-1.471c-0.666-0.301-1.162-0.722-1.59-1.486
			c-0.275-0.49-0.289-0.866-0.055-1.308c0.229-0.435,0.484-0.845,0.734-1.255c0.23-0.375,0.385-0.75,0.197-1.261
			c-0.172-0.473-0.42-0.662-0.801-0.639c-0.551,0.033-1.104,0.023-1.656,0.004c-0.678-0.024-1.271-0.258-1.754-1.04
			c-0.898-1.454-1.891-2.798-2.518-4.547c-0.031-0.088-0.08-0.169-0.137-0.233c-1.275-1.474-2.447-3.079-3.305-5.091
			c-0.068-0.16-0.215-0.258-0.332-0.37c-0.787-0.753-1.568-1.519-2.367-2.246c-0.379-0.344-0.789-0.627-1.197-0.903
			c-0.406-0.275-0.83-0.501-1.242-0.761c-0.184-0.114-0.35-0.3-0.539-0.377c-1.195-0.491-2.387-1.013-3.596-1.424
			C109.244,26.377,107.779,25.984,106.287,25.538z M66.586,118.205c0.013-0.07,0.026-0.141,0.04-0.21
			c-0.102-0.091-0.196-0.225-0.308-0.266c-1.056-0.4-2.111-0.808-3.175-1.16c-0.512-0.169-1.131-0.018-1.548-0.371
			c-0.792-0.667-1.668-0.739-2.483-0.755c-1.234-0.024-2.361-0.635-3.551-0.837c-0.832-0.141-1.663-0.295-2.496-0.424
			c-0.255-0.039-0.517,0.021-0.772-0.015c-0.891-0.128-1.782-0.325-2.544-1.022c-0.421-0.386-0.805-0.54-1.292-0.332
			c-0.247,0.104-0.609,0.208-0.779,0.036c-0.663-0.672-1.373-0.899-2.167-0.789c-0.116,0.017-0.252-0.075-0.36-0.164
			c-0.514-0.426-1.041-0.736-1.663-0.669c-0.203,0.023-0.432-0.116-0.622-0.254c-0.404-0.291-0.805-0.602-1.182-0.957
			c-0.598-0.564-1.186-1.151-1.759-1.764c-0.344-0.367-0.614-1.014-0.988-1.146c-0.433-0.154-0.721-0.441-1-0.851
			c-0.691-1.019-1.542-1.758-2.064-3.096c-0.396-1.015-0.397-1.956-0.159-2.769c0.559-1.9,1.459-3.532,2.529-4.956
			c0.638-0.849,1.29-1.68,1.911-2.553c0.153-0.214,0.288-0.559,0.298-0.853c0.049-1.43-0.333-2.574-1.164-3.464
			c-0.697-0.747-1.363-1.566-1.982-2.438c-0.325-0.456-0.642-1.053-0.747-1.66c-0.17-0.982,0.136-1.923,0.504-2.767
			c0.092-0.21,0.308-0.416,0.478-0.437c0.358-0.042,0.674-0.208,0.668-0.712c-0.005-0.465-0.16-0.95-0.312-1.382
			c-0.118-0.336-0.319-0.623-0.507-0.899c-0.308-0.454-0.637-0.88-0.952-1.324c-0.188-0.264-0.5-0.519-0.525-0.815
			c-0.074-0.865-0.114-1.772,0.005-2.615c0.049-0.351,0.52-0.606,0.819-0.859c0.903-0.764,1.69-1.883,2.856-1.867
			c0.091,0.001,0.181-0.161,0.276-0.234c0.253-0.193,0.501-0.406,0.765-0.562c0.676-0.398,1.164-1.452,0.827-2.237
			c-0.446-1.042-1.08-1.934-1.672-2.84c-0.31-0.475-0.72-0.816-1.053-1.265c-0.429-0.578-0.857-1.17-1.229-1.819
			c-0.291-0.509-0.613-1.079-0.71-1.688c-0.122-0.764-0.041-1.596-0.024-2.397c0.014-0.679,0.46-1.566,0.861-1.514
			c0.818,0.107,1.294-0.565,1.787-1.27c0.364-0.518,0.773-0.776,1.324-0.742c1.029,0.067,2.062,0.026,3.094,0.016
			c0.199-0.002,0.401-0.049,0.597-0.106c0.382-0.112,0.757-0.297,1.143-0.357c0.418-0.064,0.846-0.007,1.27-0.034
			c0.157-0.01,0.342-0.049,0.462-0.174c0.855-0.89,1.811-1.455,2.838-1.804c0.621-0.211,0.794-0.82,0.482-1.618
			c-0.238-0.608-0.465-1.228-0.676-1.855c-0.315-0.936-0.132-2.083,0.493-2.617c0.449-0.384,1.032-0.477,1.452-0.902
			c0.571-0.579,1.173-0.438,1.78-0.457c0.497-0.015,0.999-0.057,1.491,0.012c0.556,0.078,0.85-0.245,1.141-0.892
			c0.394-0.877,0.902-1.656,1.382-2.452c0.426-0.706,0.876-1.386,1.326-2.064c0.87-1.312,1.288-3.101,2.384-4.203
			c0.677-0.681,1.231-1.624,1.784-2.519c0.989-1.603,2.417-2.33,3.56-3.622c0.583-0.66,1.213-1.237,1.805-1.881
			c0.089-0.096,0.135-0.373,0.111-0.541c-0.018-0.129-0.184-0.321-0.272-0.31c-0.746,0.096-1.5,0.163-2.232,0.373
			c-0.874,0.252-1.715,0.792-2.592,0.934c-2.035,0.329-3.71,2.008-5.622,2.778c-0.213,0.086-0.379,0.398-0.571,0.596
			c-0.562,0.578-1.106,1.197-1.695,1.713c-0.543,0.476-1.144,0.816-1.34,1.8c-0.03,0.15-0.167,0.262-0.259,0.386
			c-0.926,1.245-1.888,2.441-2.764,3.75c-0.518,0.774-0.871,1.759-1.349,2.591c-0.529,0.92-1.108,1.785-1.687,2.646
			c-0.112,0.165-0.319,0.265-0.488,0.281c-0.842,0.081-1.69,0.075-2.527,0.205c-0.258,0.04-0.592,0.334-0.705,0.645
			c-0.099,0.274-0.004,0.791,0.125,1.101c0.212,0.505,0.547,0.906,0.781,1.396c0.112,0.233,0.222,0.672,0.142,0.847
			c-0.363,0.798-0.795,1.484-1.479,1.851c-0.665,0.356-1.268,0.938-1.908,1.392c-0.311,0.219-0.638,0.413-0.972,0.543
			c-0.257,0.1-0.639-0.059-0.787,0.148c-0.403,0.566-0.865,0.675-1.381,0.675c-0.641,0-1.262-0.012-1.885,0.387
			c-0.467,0.298-1.035,0.278-1.555,0.42c-0.211,0.059-0.464,0.091-0.611,0.273c-0.409,0.511-0.872,0.592-1.385,0.559
			c-0.533-0.034-1.068-0.015-1.602-0.002c-0.181,0.003-0.382-0.003-0.54,0.097c-0.547,0.352-1.083,0.742-1.619,1.13
			c-0.608,0.441-0.835,1.35-0.458,2.07c0.44,0.841,0.936,1.628,1.435,2.404c0.205,0.316,0.495,0.521,0.726,0.809
			c0.715,0.888,1.329,1.864,1.833,3.038c0.337,0.782,0.709,1.511,0.777,2.412c0.107,1.412,0.246,2.899-0.679,3.941
			c-0.322,0.364-0.814,0.425-1.142,0.782c-0.92,1.003-2.223,0.389-3.1,1.512c-0.011,0.014-0.036,0.011-0.054,0.009
			c-0.497-0.075-0.785,0.394-1.043,0.857c-0.456,0.817-0.384,1.279,0.251,1.832c0.264,0.229,0.601,0.346,0.805,0.649
			c0.614,0.911,1.248,1.824,1.733,2.865c0.244,0.523,0.38,1.458,0.209,1.972c-0.207,0.622-0.75,1.105-1.221,1.453
			c-0.955,0.702-1.158,2.027-0.388,3.081c0.25,0.342,0.548,0.617,0.783,0.976c0.499,0.757,1.418,1.093,1.278,2.32
			c0.323,0.333,0.682,0.518,0.804,0.867c0.248,0.709,0.418,1.492,0.528,2.27c0.188,1.325-0.41,2.386-0.702,3.548
			c-0.006,0.023-0.024,0.039-0.037,0.057c-1.315,1.967-2.771,3.744-3.956,5.889c-0.705,1.277-0.722,2.789,0.074,4.037
			c0.289,0.454,0.645,0.824,0.948,1.261c0.325,0.468,0.594,1.021,0.944,1.447c0.54,0.657,1.365,0.753,1.758,1.734
			c0.052,0.13,0.218,0.202,0.34,0.237c0.513,0.147,1.029,0.264,1.543,0.405c0.158,0.043,0.329,0.086,0.464,0.201
			c0.919,0.783,1.904,1.198,2.983,1.28c0.38,0.029,0.79,0.26,1.114,0.556c0.401,0.366,0.781,0.663,1.27,0.562
			c1.044-0.214,1.878,0.665,2.806,1.057c0.324,0.138,0.645,0.344,0.976,0.386c0.584,0.075,1.251-0.193,1.748,0.114
			c0.932,0.575,1.938,0.457,2.869,0.894c0.164,0.076,0.363-0.009,0.542,0.02c0.266,0.042,0.532,0.109,0.794,0.187
			c0.655,0.193,1.302,0.465,1.963,0.583c0.901,0.161,1.813,0.208,2.719,0.308c0.054,0.005,0.106,0.044,0.16,0.06
			c0.458,0.125,0.912,0.314,1.375,0.363c1.335,0.142,2.676,0.178,4.01,0.344c1.919,0.24,3.835,0.546,5.75,0.849
			C65.813,117.916,66.197,118.085,66.586,118.205z M102.359,80.208c-0.053-0.029-0.107-0.058-0.162-0.086
			c-3.039,8.005-7.837,12.282-14.23,12.502c-6.417,0.222-11.366-3.756-14.774-11.515c0.052,0.724,0.155,1.431,0.292,2.124
			c0.108,0.546,0.244,1.083,0.394,1.611c0.173,0.617,0.373,1.218,0.565,1.824c0.075,0.233,0.177,0.451,0.237,0.691
			c0.314,1.252,0.458,2.615,1.218,3.568c0.059,0.073,0.07,0.227,0.093,0.347c0.216,1.131,0.391,2.282,0.658,3.389
			c0.16,0.663,0.484,1.243,0.694,1.886c0.257,0.784,0.375,1.695,0.728,2.37c0.478,0.912,0.686,1.954,0.959,2.957
			c0.241,0.885,0.5,1.69,1.013,2.332c0.193,0.24,0.29,0.63,0.434,0.951c0.209,0.469,0.405,0.953,0.638,1.401
			c0.161,0.311,0.464,0.526,0.543,0.86c0.294,1.234,1.045,1.902,1.633,2.771c0.416,0.614,0.914,1.138,0.979,2.081
			c0.01,0.142,0.076,0.311,0.155,0.403c1.025,1.195,1.688,2.936,3.072,3.631c0.627,0.316,1.171,0.157,1.483-0.252
			c0.984-1.29,2.096-2.406,2.709-4.244c0.611-1.833,2.099-2.754,2.716-4.667c0.203-0.631,0.607-1.127,0.898-1.709
			c0.18-0.362,0.291-0.792,0.475-1.149c0.233-0.457,0.648-0.821,0.738-1.314c0.327-1.799,1.008-3.366,1.539-5.028
			c0.354-1.102,0.785-2.156,1.134-3.26c0.129-0.406,0.02-1.018,0.201-1.322c0.512-0.864,0.244-2.212,0.969-2.903
			c0.299-1.855,1.104-3.501,1.107-5.49c0-0.598,0.207-1.196,0.322-1.794C101.98,82.183,102.17,81.196,102.359,80.208z
			 M73.289,61.595c0.056,0.039,0.111,0.078,0.167,0.116c3.145-7.175,7.804-10.921,13.68-11.136
			c5.899-0.216,10.685,3.256,14.158,10.132c0.004-0.47-0.016-0.903-0.082-1.321c-0.16-0.997-0.338-1.989-0.521-2.978
			c-0.023-0.138-0.117-0.25-0.176-0.377c-0.162-0.352-0.432-0.688-0.461-1.061c-0.07-0.895-0.152-1.729-0.721-2.299
			c-0.047-0.045-0.045-0.186-0.064-0.283c-0.22-1.157-0.401-2.332-0.673-3.464c-0.16-0.664-0.479-1.248-0.691-1.892
			c-0.258-0.783-0.461-1.602-0.717-2.386c-0.297-0.912-0.692-1.771-0.926-2.711c-0.248-0.992-0.523-1.911-1.117-2.589
			c-0.111-0.126-0.25-0.289-0.275-0.463c-0.25-1.674-1.287-2.613-1.885-3.968c-0.601-1.361-1.851-2.071-2.098-3.855
			c-1.022-1.242-1.697-2.992-3.098-3.703c-0.728-0.37-1.241-0.145-1.711,0.411c-0.716,0.845-1.353,1.824-2.008,2.764
			c-0.149,0.213-0.248,0.5-0.354,0.765c-0.186,0.453-0.311,0.972-0.545,1.363c-0.999,1.657-2.028,3.277-3.043,4.914
			c-0.058,0.094-0.124,0.221-0.126,0.335c-0.011,0.875-0.487,1.326-0.836,1.907c-0.204,0.34-0.355,0.756-0.484,1.167
			c-0.143,0.462-0.199,0.98-0.355,1.431c-0.273,0.784-0.634,1.51-0.884,2.307c-0.367,1.172-0.64,2.403-1.209,3.433
			c-0.033,0.058-0.048,0.138-0.068,0.208c-0.251,0.861-0.103,1.914-0.646,2.638c-0.039,0.052-0.031,0.195-0.023,0.293
			c0.056,0.701-0.05,1.296-0.457,1.785c-0.151,0.183-0.231,0.516-0.296,0.802c-0.272,1.201-0.554,2.399-0.781,3.618
			C73.707,58.852,73.51,60.228,73.289,61.595z"/>
		<path fill-rule="evenodd" clip-rule="evenodd" fill="#FFFFFF" d="M9.578,144.412c0.436,0.297,0.875,0.586,1.308,0.895
			c0.125,0.089,0.235,0.226,0.345,0.354c0.098,0.113,0.171,0.303,0.281,0.356c0.76,0.37,1.534,1.021,2.29,0.985
			c0.848-0.041,1.364,0.531,1.849,1.175c0.854,1.137,1.824,0.466,2.743,0.576c0.125,0.015,0.271-0.067,0.375-0.004
			c0.561,0.337,1.103,0.733,1.668,1.046c0.205,0.114,0.468,0.005,0.688,0.084c0.506,0.186,0.997,0.452,1.502,0.634
			c0.687,0.25,1.375,0.529,2.075,0.659c1.126,0.209,2.266,0.44,3.396,0.403c0.662-0.021,1.239,0.206,1.844,0.421
			c0.018,0.007,0.036,0.013,0.054,0.015c1.054,0.103,2.106,0.198,3.159,0.315c0.152,0.017,0.296,0.154,0.45,0.189
			c0.261,0.059,0.527,0.106,0.791,0.106c0.112,0.001,0.292-0.227,0.327-0.181c0.567,0.76,1.28-0.121,1.888,0.344
			c0.141,0.108,0.434-0.188,0.659-0.288c0.474-0.208,0.923-0.609,1.422,0.052c0.192,0.254,0.563,0.529,0.875-0.019
			c0.089-0.158,0.363-0.14,0.554-0.149c1.002-0.053,1.959-0.612,3.018-0.201c0.537,0.209,1.2-0.236,1.807-0.371
			c0.919-0.203,1.772-0.987,2.77-0.548c0.256,0.112,0.573-0.052,0.863-0.077c0.155-0.014,0.312-0.017,0.466,0.003
			c0.088,0.012,0.224,0.152,0.251,0.113c0.339-0.478,0.824-0.287,1.178-0.516c0.339-0.22,0.568-0.162,0.865-0.029
			c0.155,0.069,0.431,0.144,0.485,0.042c0.489-0.916,1.116-0.845,1.794-0.611c0.279,0.096,0.532,0.02,0.502-0.52
			c-0.038-0.693,0.229-0.904,0.674-0.909c0.65-0.007,1.301-0.051,1.951-0.08c0.055-0.002,0.126,0.024,0.163-0.014
			c0.723-0.737,1.628-0.46,2.426-0.88c1.01-0.53,2.117-0.69,3.16-1.113c0.432-0.175,0.811-0.614,1.21-0.941
			c0.155-0.127,0.287-0.325,0.451-0.409c1.036-0.524,2.071-1.049,3.119-1.523c0.256-0.115,0.588,0.067,0.828-0.077
			c0.515-0.31,0.987-0.756,1.486-1.118c0.346-0.249,0.702-0.613,1.065-0.643c0.858-0.069,1.416-0.733,1.902-1.591
			c0.362-0.64,0.673-1.239,1.342-1.405c0.513-0.127,0.973-0.665,1.459-1.01c0.097-0.069,0.211-0.146,0.313-0.134
			c1.408,0.152,2.263-1.176,3.214-2.292c0.225-0.265,0.603-0.446,0.888-0.399c0.547,0.092,0.992-0.114,1.454-0.469
			c0.363-0.28,0.775-0.428,1.158-0.66c0.475-0.286,0.778-0.753,0.954-1.479c0.277-1.148,1.089-1.361,1.778-1.759
			c0.68-0.391,1.497-0.342,2.014-1.273c0.057-0.101,0.364-0.102,0.418-0.003c0.512,0.946,1.335,0.877,2.012,1.275
			c0.356,0.21,0.743,0.348,1.063,0.633c0.27,0.239,0.595,0.596,0.668,0.985c0.197,1.041,0.712,1.496,1.35,1.848
			c0.386,0.212,0.746,0.531,1.141,0.695c0.339,0.141,0.707,0.166,1.063,0.174c0.416,0.01,0.734,0.121,1.066,0.58
			c0.455,0.631,1.049,1.068,1.584,1.583c0.149,0.145,0.297,0.31,0.463,0.405c0.193,0.11,0.42,0.258,0.609,0.209
			c0.575-0.153,1.03,0.137,1.481,0.578c0.254,0.248,0.543,0.553,0.828,0.576c0.52,0.042,0.775,0.483,1.033,0.981
			c0.578,1.124,1.266,1.903,2.326,2.01c0.422,0.042,0.844,0.539,1.219,0.918c0.514,0.522,0.998,0.939,1.697,0.765
			c0.291-0.073,0.635,0.339,0.963,0.494c0.697,0.326,1.408,0.597,2.096,0.956c0.314,0.164,0.635,0.411,0.873,0.736
			c0.545,0.738,1.232,0.736,1.902,0.949c1.062,0.337,2.096,0.842,3.145,1.269c0.17,0.069,0.35,0.098,0.525,0.152
			c0.303,0.093,0.602,0.217,0.908,0.284c0.441,0.096,0.885,0.173,1.33,0.218c0.328,0.035,0.658,0.012,0.986,0.001
			c0.447-0.016,0.703,0.219,0.672,0.909c-0.027,0.611,0.27,0.586,0.559,0.501c0.633-0.187,1.238-0.299,1.699,0.574
			c0.061,0.114,0.301,0.138,0.424,0.074c0.348-0.184,0.67-0.447,1.004,0.048c0.051,0.077,0.207,0.034,0.312,0.014
			c0.086-0.017,0.238-0.135,0.246-0.117c0.346,0.865,0.951,0.202,1.406,0.462c0.236,0.136,0.562,0.138,0.811,0.032
			c0.66-0.277,1.254,0.007,1.871,0.251c0.625,0.246,1.26,0.477,1.9,0.595c0.438,0.082,0.896-0.094,1.342-0.058
			c0.793,0.063,1.586,0.172,2.373,0.32c0.279,0.053,0.535,0.346,0.814,0.398c0.219,0.041,0.533-0.014,0.67-0.211
			c0.463-0.665,0.93-0.34,1.363-0.067c0.408,0.255,0.775,0.404,1.215,0.181c0.152-0.078,0.352,0.047,0.527,0.038
			c0.592-0.03,1.277,0.154,1.746-0.058c0.521-0.236,1.012-0.195,1.508-0.324c0.439-0.114,0.869-0.279,1.307-0.402
			c0.117-0.033,0.25-0.013,0.371,0.018c0.547,0.137,1.068,0.104,1.535-0.391c0.053-0.056,0.135-0.069,0.205-0.074
			c0.904-0.073,1.822-0.315,2.709-0.168c1.174,0.196,2.223-0.406,3.305-0.733c0.77-0.232,1.492-0.72,2.32-0.694
			c0.332,0.01,0.736-0.194,0.988-0.498c0.779-0.937,1.713-0.649,2.541-0.548c0.777,0.096,1.201-0.468,1.697-0.986
			c0.422-0.44,0.744-0.873,1.393-0.78c0.525,0.077,1.096-0.47,1.65-0.731c0.209-0.1,0.426-0.177,0.639-0.262
			c0.053-0.021,0.137-0.007,0.156-0.052c0.342-0.798,1.053-0.661,1.49-1.172c0.197-0.229,0.336-0.648,0.383-1.011
			c0.062-0.502,0.016-1.032,0.014-1.549c0-0.984-0.275-1.509-0.986-1.58c-0.832-0.083-1.672-0.035-2.51-0.022
			c-0.732,0.011-1.473,0.133-2.137-0.464c-0.045-0.042-0.111-0.113-0.148-0.096c-1.096,0.568-2.23-0.39-3.398,0.354
			c-0.762,0.485-1.805,0.224-2.709,0.103c-0.877-0.118-1.73-0.564-2.607-0.716c-0.928-0.163-1.863-0.514-2.807-0.099
			c-0.123,0.053-0.275-0.039-0.414-0.057c-0.303-0.04-0.604-0.09-0.906-0.108c-0.396-0.025-0.797,0.018-1.191-0.045
			c-0.447-0.071-0.896-0.194-1.332-0.357c-0.465-0.175-0.992-0.282-1.359-0.668c-0.879-0.923-1.793-0.792-2.777-0.581
			c-0.523,0.113-1.078-0.059-1.619-0.108c-0.309-0.029-0.619-0.107-0.928-0.095c-0.617,0.024-1.076-0.321-1.498-0.95
			c-0.234-0.354-0.588-0.677-0.92-0.757c-0.943-0.228-1.85-0.801-2.859-0.508c-0.316,0.093-0.701-0.264-1.055-0.418
			c-0.32-0.14-0.635-0.31-0.959-0.42c-0.299-0.101-0.613-0.11-0.908-0.215c-0.383-0.136-0.756-0.322-1.131-0.499
			c-0.102-0.047-0.23-0.102-0.279-0.212c-0.422-0.956-1.088-0.875-1.758-0.908c-1.098-0.051-2.014-0.621-2.756-1.843
			c-0.686-1.128-1.465-2.074-2.688-1.949c-0.5,0.051-1.027-0.384-1.545-0.597c-0.102-0.042-0.205-0.088-0.311-0.114
			c-0.514-0.125-1.047-0.171-1.543-0.381c-0.711-0.299-1.398-0.705-2.088-1.093c-0.162-0.092-0.289-0.297-0.436-0.444
			c-0.221-0.223-0.428-0.566-0.674-0.637c-0.992-0.282-1.541-1.287-2.162-2.424c0.492-0.06,0.906-0.163,1.32-0.153
			c2.572,0.062,5.143,0.146,7.713,0.229c0.545,0.018,0.996-0.239,1.496-0.579c0.789-0.536,1.695-0.731,2.547-1.087
			c0.854-0.354,1.695-0.764,2.553-1.087c0.988-0.373,1.986-0.682,2.982-1.009c0.086-0.028,0.205-0.033,0.271,0.03
			c0.652,0.647,1.277,0.075,1.898-0.107c0.977-0.287,1.939-0.667,2.91-0.995c0.119-0.04,0.271-0.062,0.375,0.006
			c1.135,0.737,2.281,0.519,3.414,0.049c0.398-0.166,0.74-0.652,1.141-0.767c0.719-0.206,1.465-0.222,2.195-0.362
			c0.256-0.049,0.5-0.22,0.744-0.348c0.137-0.071,0.26-0.229,0.396-0.25c0.922-0.134,1.848-0.224,2.77-0.368
			c0.375-0.058,0.768-0.133,1.109-0.338c0.645-0.387,1.254-0.895,1.895-1.305c0.141-0.089,0.357-0.021,0.521,0.052
			c0.568,0.249,1.082,0.154,1.568-0.342c0.174-0.176,0.383-0.315,0.59-0.384c1.078-0.36,2.104-1.054,3.248-1.019
			c0.139,0.004,0.283-0.077,0.42-0.143c0.408-0.197,0.84-0.337,1.213-0.628c0.521-0.408,1.008-0.911,1.486-1.414
			c0.623-0.654,1.227-1.347,1.838-2.024c0.043-0.047,0.111-0.096,0.119-0.154c0.109-1.145,0.98-1.496,1.277-2.372
			c0.297-0.879,0.768-1.589,0.842-2.737c0.16-2.507-0.746-4.201-1.768-5.908c-0.484-0.807-0.924-1.697-1.494-2.366
			c-0.811-0.954-1.152-2.329-1.773-3.443c-0.314-0.562-0.219-1.141,0.062-1.635c0.438-0.772,0.947-1.409,1.668-1.692
			c0.289-0.115,0.557-0.484,0.773-0.814c0.436-0.662,0.832-1.374,1.238-2.071c0.568-0.976,0.537-2.24,0.049-3.337
			c-0.406-0.914-0.869-1.673-1.566-2.151c-0.121-0.082-0.277-0.438-0.242-0.535c0.359-0.942,0.354-2.188,1.17-2.755
			c0.463-0.322,0.922-0.672,1.35-1.074c0.16-0.149,0.316-0.474,0.33-0.732c0.039-0.747,0.084-1.522-0.025-2.242
			c-0.08-0.533-0.324-1.126-0.627-1.457c-0.482-0.527-1.053-0.924-1.623-1.251c-0.496-0.284-1.076-0.292-1.557-0.607
			c-0.865-0.567-1.887-0.847-2.416-2.161c-0.506-1.261-0.295-2.657,0.502-3.572c0.236-0.27,0.416-0.638,0.654-0.9
			c0.398-0.436,0.85-0.78,1.23-1.24c0.512-0.616,0.977-1.308,1.467-1.961c0.146-0.196,0.297-0.387,0.461-0.555
			c0.789-0.812,1.225-2.812,0.85-4.086c-0.084-0.293-0.314-0.495-0.451-0.765c-0.648-1.272-1.711-1.697-2.615-2.384
			c-0.598-0.453-1.391-0.488-2.1-0.536c-1.246-0.083-2.498,0.083-3.721-0.462c-0.303-0.136-0.672,0.039-0.984-0.069
			c-0.643-0.221-1.268-0.53-1.896-0.817c-0.154-0.071-0.291-0.23-0.447-0.289c-0.453-0.17-0.932-0.243-1.367-0.477
			c-0.873-0.468-1.746-0.96-2.57-1.569c-0.266-0.195-0.527-0.786-0.531-1.199c-0.004-0.586,0.35-0.889,0.814-1.042
			c0.482-0.16,0.949-0.537,1.363-0.937c0.451-0.434,0.406-1.165,0.232-1.768c-0.168-0.583-0.332-1.223-0.992-1.196
			c-0.441,0.02-0.891-0.33-1.338-0.501c-0.277-0.106-0.555-0.227-0.838-0.268c-0.428-0.061-0.824-0.027-1.254-0.369
			c-0.354-0.283-0.906-0.204-1.35-0.103c-0.908,0.206-1.457-0.492-1.812-1.438c-0.609-1.623-1.582-2.75-2.482-3.991
			c-0.801-1.101-1.566-2.254-2.393-3.311c-0.646-0.826-1.363-1.541-2.049-2.306c-0.1-0.113-0.189-0.245-0.291-0.354
			c-0.695-0.74-1.393-1.473-2.086-2.217c-0.123-0.132-0.225-0.308-0.344-0.448c-0.289-0.342-0.566-0.713-0.879-1.007
			c-0.787-0.742-1.582-1.471-2.393-2.16c-0.5-0.425-1.049-0.737-1.553-1.152c-0.656-0.539-1.287-1.138-1.936-1.694
			c-0.211-0.179-0.447-0.301-0.67-0.449c-0.654-0.434-1.311-0.864-1.963-1.305c-0.115-0.076-0.207-0.248-0.322-0.279
			c-0.533-0.143-1.07-0.23-1.6-0.38c-0.201-0.057-0.412-0.184-0.572-0.361c-0.414-0.46-0.836-0.835-1.393-0.764
			c-0.09,0.011-0.217,0.041-0.27-0.027c-0.779-0.969-1.898-0.754-2.729-1.565c-0.203-0.199-0.52-0.172-0.787-0.241
			c-0.125-0.034-0.254-0.035-0.379-0.074c-5.346-1.686-10.762-2.687-16.222-3.26c-1.027-0.107-2.06-0.146-3.09-0.229
			c-0.235-0.02-0.468-0.089-0.704-0.136c24.312,0,48.625,0,72.943,0c0,47.193,0,94.385,0,141.598c-51.869,0-103.744,0-155.62,0
			C9.578,150.104,9.578,147.258,9.578,144.412z"/>
		<path fill-rule="evenodd" clip-rule="evenodd" fill="#FFFFFF" d="M82.417,11.333c-0.932,0.103-1.864,0.213-2.796,0.305
			c-5.093,0.507-10.155,1.353-15.164,2.757c-1.189,0.333-2.369,0.748-3.551,1.134c-0.507,0.166-1.013,0.342-1.513,0.544
			c-0.132,0.053-0.234,0.24-0.364,0.322c-0.274,0.173-0.556,0.318-0.836,0.472c-0.43,0.237-0.863,0.47-1.292,0.71
			c-0.243,0.135-0.479,0.297-0.725,0.42c-0.682,0.34-1.444,0.183-2.078,0.926c-0.428,0.504-1.055,0.671-1.587,1.008
			c-0.322,0.203-0.64,0.425-0.945,0.672c-0.628,0.507-1.25,1.029-1.869,1.558c-0.98,0.837-1.956,1.687-2.934,2.528
			c-0.513,0.441-1.092,0.776-1.525,1.336c-0.602,0.779-1.187,1.552-1.943,2.022c-0.033,0.02-0.06,0.06-0.088,0.093
			c-1.24,1.519-2.498,3.008-3.713,4.564c-1.056,1.352-2.082,2.754-3.085,4.183c-0.355,0.507-0.599,1.167-0.905,1.746
			c-0.283,0.536-0.565,1.077-0.884,1.57c-0.104,0.161-0.321,0.23-0.49,0.245c-0.404,0.036-0.815-0.04-1.214,0.027
			c-0.363,0.061-0.711,0.272-1.072,0.374c-0.249,0.07-0.511,0.115-0.763,0.085c-0.561-0.065-1.023,0.241-1.503,0.59
			c-0.258,0.187-0.591,0.202-0.894,0.227c-0.486,0.041-0.878,0.541-1.01,1.359c-0.133,0.833,0.07,1.562,0.54,1.838
			c0.467,0.274,0.945,0.512,1.418,0.765c0.587,0.314,0.761,1.45,0.222,1.931c-0.661,0.588-1.417,0.968-2.134,1.43
			c-0.197,0.128-0.401,0.242-0.606,0.343c-1.036,0.512-2.072,1.018-3.109,1.524c-0.069,0.034-0.14,0.073-0.211,0.08
			c-1.625,0.17-3.249,0.441-4.874,0.467c-1.207,0.019-2.283,0.426-3.298,1.275c-0.485,0.407-0.984,0.739-1.441,1.265
			c-0.907,1.042-0.872,2.273-0.69,3.63c0.099,0.736,0.374,1.247,0.832,1.716c0.689,0.705,1.216,1.723,1.909,2.418
			c0.664,0.666,1.266,1.408,1.879,2.152c0.864,1.051,1.274,3.184-0.024,4.395c-0.749,0.699-1.497,1.315-2.453,1.449
			c-0.606,0.083-1.184,0.638-1.763,1.016c-0.278,0.181-0.553,0.404-0.79,0.676c-0.371,0.424-0.721,0.892-0.716,1.654
			c0.003,0.595,0.013,1.192-0.01,1.785c-0.025,0.628,0.236,0.867,0.557,1.25c0.587,0.699,1.512,0.756,1.837,1.927
			c0.15,0.541,0.362,1.057,0.461,1.613c0.034,0.193-0.151,0.601-0.305,0.699c-0.833,0.53-1.329,1.54-1.717,2.58
			c-0.319,0.853-0.26,1.875,0.2,2.705c0.473,0.854,0.962,1.693,1.485,2.488c0.186,0.281,0.479,0.452,0.744,0.595
			c0.698,0.375,1.235,1.014,1.639,1.876c0.353,0.754-0.012,1.39-0.247,2c-0.215,0.559-0.489,1.083-0.783,1.566
			c-0.756,1.242-1.514,2.483-2.315,3.668c-0.775,1.146-1.38,2.449-1.652,3.956c-0.229,1.275-0.22,2.551,0.398,3.791
			c0.396,0.793,0.908,1.443,1.258,2.203c0.37,0.803,0.788,1.372,1.31,1.923c0.65,0.687,1.229,1.508,1.838,2.271
			c0.014,0.017,0.029,0.038,0.045,0.044c0.985,0.411,1.876,1.234,2.947,1.277c0.322,0.013,0.645,0.15,0.96,0.268
			c0.564,0.208,1.124,0.433,1.682,0.673c0.171,0.074,0.346,0.181,0.487,0.332c0.498,0.533,1.024,0.598,1.619,0.37
			c0.198-0.076,0.457,0.075,0.672,0.184c0.898,0.459,1.768,1.083,2.691,1.375c0.933,0.295,1.916,0.267,2.876,0.387
			c0.089,0.011,0.211,0.032,0.257,0.115c0.399,0.699,0.98,0.461,1.484,0.574c0.601,0.133,1.213,0.164,1.817,0.271
			c0.152,0.027,0.322,0.134,0.434,0.28c0.487,0.631,1.063,0.862,1.708,0.852c0.46-0.009,0.92,0.003,1.381-0.005
			c0.146-0.002,0.322,0.032,0.433-0.064c0.796-0.692,1.53-0.21,2.29,0.154c0.531,0.254,1.099,0.353,1.637,0.582
			c0.586,0.249,1.138,0.458,1.748,0.032c0.205-0.143,0.542,0.024,0.804,0.123c0.881,0.326,1.752,0.701,2.632,1.029
			c1.001,0.373,2.018,0.673,3.01,1.087c0.689,0.287,1.367,0.663,2.019,1.091c0.544,0.358,1.043,0.499,1.636,0.208
			c0.378-0.187,0.824-0.219,1.228-0.161c0.875,0.128,1.743,0.354,2.613,0.55c0.216,0.048,0.467,0.048,0.637,0.207
			c0.769,0.724,1.637,0.863,2.521,0.964c0.155,0.018,0.304,0.131,0.516,0.23c-0.104,0.159-0.154,0.312-0.219,0.326
			c-1.065,0.231-1.671,1.798-2.829,1.853c-0.434,0.021-0.849,0.568-1.286,0.83c-0.248,0.148-0.537,0.328-0.786,0.279
			c-0.789-0.159-1.376,0.715-2.134,0.721c-0.519,0.004-1.095,0.03-1.54,0.343c-0.561,0.396-1.09,1.001-1.498,1.678
			c-0.689,1.144-1.569,1.672-2.563,1.779c-0.736,0.079-1.349,0.111-1.997,0.894c-0.531,0.64-1.446,0.65-2.188,0.95
			c-0.353,0.143-0.7,0.312-1.05,0.465c-0.323,0.141-0.667,0.452-0.966,0.383c-1.271-0.295-2.418,0.264-3.551,0.893
			c-0.319,0.177-0.547,0.658-0.833,0.969c-0.127,0.139-0.303,0.3-0.446,0.282c-1.161-0.147-2.273,0.678-3.479,0.148
			c-1.04-0.456-1.995,0.258-2.872,1.079c-0.17,0.16-0.399,0.214-0.607,0.27c-0.516,0.138-1.034,0.275-1.555,0.362
			c-0.376,0.062-0.759,0.032-1.138,0.063c-0.336,0.027-0.67,0.114-1.006,0.116c-0.375,0.001-0.752-0.11-1.126-0.089
			c-0.701,0.041-1.411,0.062-2.099,0.234c-1.595,0.397-3.173,0.973-4.813,0.848c-0.179-0.013-0.352-0.137-0.531-0.187
			c-0.618-0.173-1.234-0.35-1.855-0.492c-0.104-0.023-0.225,0.163-0.343,0.185c-0.236,0.042-0.476,0.046-0.714,0.048
			c-0.202,0-0.453-0.14-0.597-0.019c-0.629,0.534-1.313,0.421-1.985,0.431c-0.836,0.013-1.681-0.12-2.506,0.013
			c-0.403,0.064-0.769,0.587-1.151,0.902c0-43.428,0-86.855,0-130.283C33.857,11.333,58.137,11.333,82.417,11.333z"/>
		<path fill-rule="evenodd" clip-rule="evenodd" fill="#FFFFFF" d="M106.287,25.538c1.492,0.446,2.957,0.839,4.404,1.333
			c1.209,0.411,2.4,0.933,3.596,1.424c0.189,0.078,0.355,0.263,0.539,0.377c0.412,0.26,0.836,0.486,1.242,0.761
			c0.408,0.275,0.818,0.559,1.197,0.903c0.799,0.727,1.58,1.493,2.367,2.246c0.117,0.112,0.264,0.21,0.332,0.37
			c0.857,2.012,2.029,3.617,3.305,5.091c0.057,0.063,0.105,0.145,0.137,0.233c0.627,1.75,1.619,3.094,2.518,4.547
			c0.482,0.782,1.076,1.016,1.754,1.04c0.553,0.02,1.105,0.029,1.656-0.004c0.381-0.023,0.629,0.166,0.801,0.639
			c0.188,0.511,0.033,0.887-0.197,1.261c-0.25,0.41-0.506,0.82-0.734,1.255c-0.234,0.442-0.221,0.818,0.055,1.308
			c0.428,0.764,0.924,1.185,1.59,1.486c0.617,0.278,1.139,0.969,1.707,1.471c0.164,0.146,0.336,0.357,0.518,0.384
			c0.52,0.077,1.033-0.06,1.516,0.488c0.262,0.295,0.721,0.303,1.096,0.328c0.604,0.042,1.186,0.033,1.773,0.397
			c0.471,0.292,1.033,0.289,1.555,0.423c0.178,0.045,0.412,0.028,0.52,0.18c0.537,0.761,1.203,0.663,1.863,0.647
			c0.074-0.002,0.15,0.017,0.221-0.003c1.246-0.355,2.219,0.644,3.242,1.324c0.562,0.372,0.75,1.24,0.416,1.893
			c-0.463,0.91-0.986,1.771-1.537,2.581c-0.643,0.943-1.414,1.725-2.002,2.725c-1.037,1.757-1.697,3.754-1.186,6.111
			c0.221,1.02,0.693,1.802,1.525,1.967c0.121,0.023,0.23,0.145,0.35,0.193c0.52,0.21,1.033,0.458,1.561,0.597
			c0.346,0.092,2.154,1.117,2.395,1.478c0.584,0.879,0.529,1.532-0.225,2.1c-1.135,0.854-1.844,2.303-2.582,3.679
			c-0.527,0.986,0.018,2.585,0.957,3.146c1.088,0.649,1.529,2.098,0.465,3.281c-0.418,0.465-0.797,0.999-1.219,1.455
			c-0.439,0.477-0.832,0.96-0.707,1.892c-0.625,0.023-0.893,0.51-1,1.296c-0.068,0.5-0.297,0.961-0.35,1.461
			c-0.16,1.506,0.229,2.858,0.904,3.94c0.906,1.456,1.979,2.704,2.902,4.14c0.529,0.823,0.98,1.792,1.32,2.792
			c0.303,0.889,0.018,1.831-0.357,2.605c-0.205,0.43-0.562,0.719-0.85,1.075c-0.08,0.101-0.188,0.197-0.225,0.329
			c-0.355,1.196-1.057,1.785-1.883,2.169c-0.086,0.041-0.199,0.092-0.236,0.188c-0.396,0.974-1.1,1.19-1.785,1.438
			c-0.191,0.07-0.398,0.06-0.594,0.114c-0.209,0.058-0.441,0.089-0.621,0.236c-0.91,0.745-1.873,1.176-2.936,1.245
			c-0.381,0.025-0.799,0.24-1.117,0.544c-0.414,0.399-0.818,0.652-1.322,0.577c-1.074-0.16-1.951,0.658-2.891,1.171
			c-0.248,0.136-0.518,0.262-0.779,0.273c-0.93,0.04-1.826,0.045-2.748,0.534c-0.803,0.427-1.754,0.274-2.629,0.468
			c-0.605,0.134-1.195,0.418-1.791,0.641c-0.086,0.032-0.164,0.137-0.25,0.146c-0.998,0.108-1.998,0.203-2.998,0.31
			c-0.18,0.02-0.434-0.01-0.521,0.138c-0.342,0.583-0.787,0.414-1.215,0.466c-1.354,0.168-2.713,0.288-4.053,0.572
			c-1.717,0.363-3.412,0.917-5.127,1.292c-1.375,0.3-2.768,0.454-4.154,0.673c-0.014-0.09-0.029-0.18-0.045-0.27
			c0.115-0.071,0.232-0.207,0.346-0.204c0.781,0.024,1.465-0.268,2.066-1.001c0.193-0.236,0.486-0.338,0.746-0.435
			c0.672-0.252,1.35-0.47,2.025-0.697c0.408-0.137,0.812-0.299,1.227-0.396c1.512-0.354,2.967-1.24,4.547-0.985
			c0.143,0.022,0.297-0.017,0.436-0.081c1.715-0.788,3.461-1.207,5.281-1.173c0.936,0.016,1.857-0.374,2.695-1.098
			c0.275-0.238,0.717-0.337,1.021-0.212c0.605,0.246,1.062,0.032,1.527-0.466c0.16-0.171,0.398-0.288,0.598-0.282
			c0.611,0.016,1.191-0.014,1.75-0.48c0.295-0.245,0.699-0.215,1.045-0.36c0.34-0.142,0.682-0.302,0.994-0.532
			c0.674-0.496,1.354-0.991,1.98-1.586c0.479-0.453,0.883-1.061,1.32-1.601c0.121-0.15,0.244-0.439,0.357-0.433
			c0.57,0.034,0.832-0.564,1.18-1.007c0.297-0.379,0.67-0.658,0.924-1.083c0.461-0.771,0.98-1.549,1.236-2.457
			c0.182-0.637,0.104-1.579-0.102-2.233c-0.357-1.134-0.854-2.206-1.387-3.2c-0.461-0.856-1.043-1.583-1.592-2.34
			c-0.482-0.667-1.012-1.269-1.48-1.949c-0.508-0.731-0.252-1.624-0.09-2.391c0.236-1.106,0.934-1.727,1.529-2.465
			c0.764-0.946,1.447-2.023,2.133-3.087c0.121-0.187,0.141-0.609,0.09-0.882c-0.139-0.785-0.314-1.563-0.531-2.312
			c-0.061-0.204-0.316-0.292-0.479-0.441c-0.223-0.207-0.598-0.386-0.629-0.644c-0.051-0.426,0.064-0.945,0.213-1.351
			c0.17-0.467,0.436-0.874,0.691-1.267c0.23-0.353,0.496-0.663,0.76-0.97c0.109-0.129,0.271-0.171,0.375-0.308
			c0.406-0.537,0.475-3.082,0.057-3.571c-0.383-0.447-0.838-0.772-1.271-1.129c-0.361-0.298-0.736-0.561-1.102-0.846
			c-0.113-0.087-0.23-0.304-0.32-0.28c-0.732,0.203-1.23-0.521-1.807-0.898c-0.369-0.243-0.822-0.625-0.949-1.098
			c-0.119-0.44,0.018-1.272,0.264-1.603c0.732-0.983,1.152-2.377,2.184-3.009c0.477-0.294,0.777-1.172,1.146-1.797
			c0.35-0.592,0.689-1.198,1.025-1.804c0.064-0.111,0.141-0.25,0.143-0.378c0.01-0.905,0.029-1.813-0.01-2.716
			c-0.033-0.716-0.582-1.404-1.086-1.364c-0.471,0.037-0.838-0.193-1.117-0.673c-0.609-1.046-1.363-1.455-2.326-1.31
			c-0.656,0.099-1.326,0.029-1.988,0.016c-0.506-0.01-0.98-0.03-1.486-0.362c-0.443-0.292-1.047-0.112-1.58-0.112
			c-0.482,0.001-0.859-0.178-1.295-0.592c-0.672-0.642-1.514-0.936-2.283-1.381c-0.23-0.134-0.482-0.235-0.682-0.434
			c-0.275-0.272-0.291-0.583-0.109-1.058c0.391-1.023,0.977-1.951,0.898-3.251c-0.047-0.772-0.664-1.755-1.199-1.932
			c-0.412-0.135-0.795-0.432-1.197-0.629c-0.184-0.091-0.383-0.164-0.576-0.168c-0.885-0.017-1.77,0.027-2.652-0.032
			c-0.229-0.015-0.537-0.239-0.656-0.503c-0.75-1.653-1.672-3.087-2.633-4.505c-0.629-0.93-1.055-2.13-1.594-3.187
			c-0.203-0.4-0.467-0.746-0.713-1.101c-0.129-0.183-0.289-0.32-0.42-0.5c-0.834-1.164-1.656-2.347-2.502-3.493
			c-0.234-0.316-0.539-0.528-0.809-0.788c-1.121-1.073-2.236-2.154-3.363-3.215C106.16,26.662,106.121,26.244,106.287,25.538z"/>
		<path fill-rule="evenodd" clip-rule="evenodd" fill="#FFFFFF" d="M66.586,118.205c-0.389-0.119-0.773-0.289-1.167-0.351
			c-1.916-0.302-3.831-0.609-5.75-0.849c-1.333-0.166-2.675-0.202-4.01-0.344c-0.462-0.048-0.917-0.237-1.375-0.363
			c-0.054-0.015-0.106-0.055-0.16-0.06c-0.906-0.1-1.818-0.146-2.719-0.308c-0.661-0.118-1.308-0.39-1.963-0.583
			c-0.262-0.078-0.528-0.144-0.794-0.187c-0.179-0.029-0.378,0.057-0.542-0.02c-0.931-0.438-1.937-0.319-2.869-0.894
			c-0.497-0.307-1.164-0.039-1.748-0.114c-0.331-0.042-0.651-0.248-0.976-0.386c-0.928-0.392-1.762-1.271-2.806-1.057
			c-0.489,0.101-0.869-0.196-1.27-0.562c-0.324-0.296-0.733-0.527-1.114-0.556c-1.079-0.082-2.064-0.497-2.983-1.28
			c-0.135-0.115-0.306-0.157-0.464-0.201c-0.514-0.141-1.03-0.258-1.543-0.405c-0.122-0.035-0.288-0.107-0.34-0.237
			c-0.394-0.98-1.218-1.077-1.758-1.734c-0.35-0.426-0.619-0.979-0.944-1.447c-0.304-0.437-0.659-0.807-0.948-1.261
			c-0.796-1.249-0.778-2.76-0.074-4.037c1.184-2.146,2.64-3.922,3.956-5.889c0.013-0.018,0.031-0.034,0.037-0.057
			c0.292-1.162,0.891-2.223,0.702-3.548c-0.11-0.778-0.281-1.561-0.528-2.27c-0.122-0.349-0.481-0.534-0.804-0.867
			c0.14-1.227-0.779-1.563-1.278-2.32c-0.235-0.359-0.534-0.634-0.783-0.976c-0.77-1.054-0.567-2.379,0.388-3.081
			c0.471-0.347,1.014-0.831,1.221-1.453c0.171-0.514,0.035-1.449-0.209-1.972c-0.486-1.042-1.119-1.954-1.733-2.865
			c-0.204-0.303-0.541-0.42-0.805-0.649c-0.635-0.553-0.707-1.015-0.251-1.832c0.258-0.463,0.546-0.932,1.043-0.857
			c0.018,0.001,0.043,0.004,0.054-0.009c0.876-1.123,2.179-0.508,3.1-1.512c0.328-0.357,0.819-0.418,1.142-0.782
			c0.924-1.042,0.786-2.529,0.679-3.941c-0.068-0.901-0.44-1.63-0.777-2.412c-0.505-1.174-1.119-2.15-1.833-3.038
			c-0.231-0.288-0.521-0.492-0.726-0.809c-0.499-0.775-0.995-1.562-1.435-2.404c-0.376-0.72-0.149-1.629,0.458-2.07
			c0.535-0.388,1.071-0.778,1.619-1.13c0.158-0.101,0.359-0.094,0.54-0.097c0.534-0.012,1.069-0.032,1.602,0.002
			c0.513,0.033,0.976-0.048,1.385-0.559c0.147-0.182,0.4-0.214,0.611-0.273c0.52-0.142,1.088-0.123,1.555-0.42
			c0.624-0.399,1.245-0.388,1.885-0.387c0.517,0,0.978-0.108,1.381-0.675c0.147-0.208,0.53-0.048,0.787-0.148
			c0.334-0.13,0.661-0.324,0.972-0.543c0.64-0.454,1.243-1.036,1.908-1.392c0.685-0.367,1.117-1.052,1.479-1.851
			c0.08-0.175-0.03-0.614-0.142-0.847c-0.234-0.491-0.569-0.891-0.781-1.396c-0.13-0.31-0.224-0.827-0.125-1.101
			c0.112-0.311,0.446-0.605,0.705-0.645c0.837-0.13,1.685-0.124,2.527-0.205c0.169-0.016,0.376-0.116,0.488-0.281
			c0.579-0.861,1.158-1.726,1.687-2.646c0.479-0.832,0.832-1.817,1.349-2.591c0.876-1.31,1.838-2.506,2.764-3.75
			c0.092-0.124,0.229-0.236,0.259-0.386c0.196-0.984,0.797-1.325,1.34-1.8c0.589-0.516,1.133-1.135,1.695-1.713
			c0.192-0.198,0.358-0.509,0.571-0.596c1.912-0.77,3.587-2.449,5.622-2.778c0.877-0.141,1.719-0.682,2.592-0.934
			c0.731-0.21,1.486-0.277,2.232-0.373c0.088-0.012,0.254,0.18,0.272,0.31c0.024,0.167-0.022,0.444-0.111,0.541
			c-0.592,0.645-1.222,1.222-1.805,1.881c-1.143,1.292-2.57,2.019-3.56,3.622c-0.552,0.896-1.107,1.838-1.784,2.519
			c-1.097,1.102-1.514,2.891-2.384,4.203c-0.45,0.678-0.9,1.358-1.326,2.064c-0.48,0.796-0.988,1.575-1.382,2.452
			c-0.291,0.647-0.585,0.97-1.141,0.892c-0.493-0.069-0.994-0.026-1.491-0.012c-0.607,0.019-1.208-0.122-1.78,0.457
			c-0.419,0.425-1.003,0.518-1.452,0.902c-0.625,0.535-0.809,1.682-0.493,2.617c0.211,0.628,0.438,1.248,0.676,1.855
			c0.312,0.798,0.139,1.407-0.482,1.618c-1.027,0.349-1.983,0.915-2.838,1.804c-0.12,0.125-0.305,0.164-0.462,0.174
			c-0.423,0.026-0.851-0.031-1.27,0.034c-0.386,0.06-0.761,0.245-1.143,0.357c-0.196,0.057-0.398,0.104-0.597,0.106
			c-1.032,0.01-2.065,0.052-3.094-0.016c-0.551-0.035-0.96,0.224-1.324,0.742c-0.493,0.704-0.969,1.377-1.787,1.27
			c-0.4-0.053-0.847,0.835-0.861,1.514c-0.017,0.801-0.097,1.633,0.024,2.397c0.097,0.609,0.419,1.178,0.71,1.688
			c0.372,0.649,0.8,1.241,1.229,1.819c0.333,0.449,0.744,0.791,1.053,1.265c0.592,0.906,1.226,1.798,1.672,2.84
			c0.337,0.786-0.15,1.839-0.827,2.237c-0.264,0.156-0.512,0.369-0.765,0.562c-0.096,0.073-0.185,0.235-0.276,0.234
			c-1.166-0.016-1.953,1.103-2.856,1.867c-0.299,0.253-0.771,0.509-0.819,0.859c-0.119,0.843-0.079,1.75-0.005,2.615
			c0.025,0.297,0.337,0.551,0.525,0.815c0.315,0.444,0.645,0.871,0.952,1.324c0.188,0.277,0.389,0.563,0.507,0.899
			c0.152,0.432,0.307,0.917,0.312,1.382c0.006,0.504-0.311,0.669-0.668,0.712c-0.17,0.021-0.386,0.226-0.478,0.437
			c-0.369,0.844-0.674,1.785-0.504,2.767c0.105,0.607,0.422,1.204,0.747,1.66c0.62,0.872,1.285,1.691,1.982,2.438
			c0.832,0.89,1.213,2.034,1.164,3.464c-0.01,0.293-0.145,0.638-0.298,0.853c-0.621,0.873-1.272,1.704-1.911,2.553
			c-1.07,1.424-1.97,3.056-2.529,4.956c-0.239,0.813-0.237,1.754,0.159,2.769c0.521,1.338,1.373,2.077,2.064,3.096
			c0.278,0.41,0.566,0.697,1,0.851c0.374,0.132,0.644,0.779,0.988,1.146c0.573,0.613,1.161,1.2,1.759,1.764
			c0.377,0.354,0.778,0.666,1.182,0.957c0.19,0.138,0.419,0.277,0.622,0.254c0.622-0.067,1.148,0.243,1.663,0.669
			c0.107,0.088,0.244,0.18,0.36,0.164c0.794-0.111,1.504,0.116,2.167,0.789c0.169,0.171,0.532,0.068,0.779-0.036
			c0.487-0.208,0.87-0.054,1.292,0.332c0.762,0.697,1.653,0.894,2.544,1.022c0.255,0.036,0.517-0.024,0.772,0.015
			c0.833,0.128,1.664,0.283,2.496,0.424c1.19,0.203,2.317,0.813,3.551,0.837c0.814,0.016,1.691,0.088,2.483,0.755
			c0.417,0.353,1.036,0.201,1.548,0.371c1.064,0.352,2.119,0.76,3.175,1.16c0.111,0.041,0.206,0.175,0.308,0.266
			C66.613,118.064,66.6,118.134,66.586,118.205z"/>
		<path fill-rule="evenodd" clip-rule="evenodd" fill="#FFFFFF" d="M102.359,80.208c-0.189,0.988-0.379,1.976-0.568,2.964
			c-0.115,0.598-0.322,1.197-0.322,1.794c-0.004,1.989-0.809,3.635-1.107,5.49c-0.725,0.691-0.457,2.039-0.969,2.903
			c-0.182,0.304-0.072,0.916-0.201,1.322c-0.349,1.104-0.78,2.158-1.134,3.26c-0.531,1.663-1.212,3.229-1.539,5.028
			c-0.09,0.493-0.505,0.857-0.738,1.314c-0.184,0.358-0.295,0.788-0.475,1.149c-0.291,0.582-0.695,1.078-0.898,1.709
			c-0.617,1.913-2.105,2.834-2.716,4.667c-0.613,1.838-1.725,2.955-2.709,4.244c-0.312,0.409-0.855,0.568-1.483,0.252
			c-1.384-0.695-2.047-2.436-3.072-3.631c-0.079-0.092-0.146-0.261-0.155-0.403c-0.066-0.943-0.564-1.467-0.979-2.081
			c-0.587-0.869-1.339-1.537-1.633-2.771c-0.079-0.334-0.382-0.55-0.543-0.86c-0.232-0.448-0.429-0.932-0.638-1.401
			c-0.144-0.321-0.24-0.711-0.434-0.951c-0.514-0.642-0.772-1.447-1.013-2.332c-0.273-1.003-0.482-2.045-0.959-2.957
			c-0.354-0.674-0.471-1.586-0.728-2.37c-0.21-0.643-0.534-1.223-0.694-1.886c-0.267-1.106-0.442-2.257-0.658-3.389
			c-0.023-0.12-0.034-0.274-0.093-0.347c-0.76-0.953-0.904-2.315-1.218-3.568c-0.06-0.24-0.163-0.458-0.237-0.691
			c-0.192-0.606-0.392-1.208-0.565-1.824c-0.149-0.528-0.285-1.064-0.394-1.611c-0.137-0.693-0.24-1.4-0.292-2.124
			c3.408,7.759,8.357,11.737,14.774,11.515c6.394-0.22,11.191-4.497,14.23-12.502C102.252,80.149,102.307,80.178,102.359,80.208z"/>
		<path fill-rule="evenodd" clip-rule="evenodd" fill="#FFFFFF" d="M73.289,61.595c0.221-1.367,0.418-2.743,0.671-4.099
			c0.227-1.218,0.508-2.417,0.781-3.618c0.065-0.286,0.145-0.62,0.296-0.802c0.407-0.489,0.513-1.084,0.457-1.785
			c-0.007-0.098-0.015-0.241,0.023-0.293c0.543-0.725,0.395-1.777,0.646-2.638c0.021-0.07,0.036-0.15,0.068-0.208
			c0.57-1.03,0.843-2.261,1.209-3.433c0.25-0.796,0.611-1.523,0.884-2.307c0.156-0.451,0.212-0.969,0.355-1.431
			c0.128-0.41,0.28-0.827,0.484-1.167c0.349-0.582,0.825-1.032,0.836-1.907c0.002-0.114,0.068-0.241,0.126-0.335
			c1.015-1.637,2.044-3.257,3.043-4.914c0.235-0.391,0.36-0.91,0.545-1.363c0.107-0.264,0.205-0.551,0.354-0.765
			c0.655-0.94,1.292-1.919,2.008-2.764c0.47-0.555,0.983-0.78,1.711-0.411c1.4,0.711,2.075,2.461,3.098,3.703
			c0.247,1.784,1.497,2.494,2.098,3.855c0.598,1.355,1.635,2.294,1.885,3.968c0.025,0.175,0.164,0.337,0.275,0.463
			c0.594,0.679,0.869,1.597,1.117,2.589c0.233,0.94,0.629,1.799,0.926,2.711c0.256,0.784,0.459,1.603,0.717,2.386
			c0.212,0.644,0.531,1.228,0.691,1.892c0.271,1.133,0.453,2.307,0.673,3.464c0.02,0.097,0.018,0.238,0.064,0.283
			c0.568,0.57,0.65,1.404,0.721,2.299c0.029,0.373,0.299,0.709,0.461,1.061c0.059,0.127,0.152,0.239,0.176,0.377
			c0.184,0.989,0.361,1.981,0.521,2.978c0.066,0.418,0.086,0.851,0.082,1.321c-3.474-6.876-8.259-10.349-14.158-10.132
			c-5.876,0.215-10.535,3.96-13.68,11.136C73.399,61.672,73.344,61.633,73.289,61.595z"/>
	</g>
</g>
<g id="Layer_20_copy_2_xA0_Image_1_">
</g>
</svg>
