<?xml version="1.0" encoding="utf-8"?>
<!-- Generator: Adobe Illustrator 16.0.0, SVG Export Plug-In . SVG Version: 6.00 Build 0)  -->
<!DOCTYPE svg PUBLIC "-//W3C//DTD SVG 1.1//EN" "http://www.w3.org/Graphics/SVG/1.1/DTD/svg11.dtd">
<svg version="1.1" xmlns="http://www.w3.org/2000/svg" xmlns:xlink="http://www.w3.org/1999/xlink" x="0px" y="0px" width="176px"
	 height="162px" viewBox="0 0 176 162" enable-background="new 0 0 176 162" xml:space="preserve">
<g id="Layer_16_copy_xA0_Image_1_">
	<g>
		<path fill="#FFFFFF" d="M152.55,157.8c-46.08,0-92.162,0-138.241,0c0-51.2,0-102.399,0-153.6c46.08,0,92.161,0,138.241,0
			C152.55,55.4,152.55,106.6,152.55,157.8z M96.537,45.191c-0.945,0.176-2.047-0.258-2.912,0.6
			c-0.091,0.091-0.311,0.038-0.461,0.082c-0.601,0.179-1.239,0.29-1.783,0.578c-0.46,0.244-0.82,0.686-1.204,1.062
			c-0.538,0.529-0.556,1.33-0.02,1.878c0.67,0.686,1.363,1.35,2.064,2.003c0.354,0.329,0.817,0.599,0.45,1.18
			c-0.25,0.395-0.456,0.872-0.812,1.131c-0.526,0.381-1.16,0.62-1.765,0.881c-0.344,0.148-0.824,0.115-1.061,0.348
			c-0.515,0.509-1.116,0.439-1.724,0.497c-0.244,0.023-0.578,0.083-0.699,0.251c-0.505,0.703-1.198,0.771-1.965,0.739
			c-0.519-0.022-1.039,0.016-1.56,0.021c-0.517,0.006-1.035-0.046-1.409,0.46c-0.089,0.121-0.363,0.138-0.555,0.146
			c-1.6,0.064-3.198,0.167-4.797,0.153c-1.084-0.01-2.057,0.057-2.71,1.085c-0.177,0.278-0.503,0.457-0.714,0.72
			c-0.37,0.459-0.814,0.65-1.409,0.626c-0.712-0.029-1.944,0.975-2.047,1.665c-0.286,1.924,0.194,3.641,1.506,5.092
			c0.234,0.259,0.565,0.429,0.843,0.651c0.149,0.121,0.309,0.247,0.41,0.406c0.6,0.939,1.369,1.673,2.367,2.198
			c0.363,0.191,0.624,0.59,0.912,0.912c0.283,0.316,0.488,0.729,0.822,0.97c0.908,0.657,0.89,1.634,0.995,2.574
			c0.011,0.099-0.091,0.215-0.153,0.314c-0.691,1.095-2.029,1.332-2.912,2.179c-0.081,0.078-0.269,0.065-0.406,0.062
			c-0.615-0.019-1.168,0.045-1.572,0.628c-0.148,0.213-0.508,0.282-0.775,0.408c-0.213,0.1-0.457,0.149-0.642,0.283
			c-0.868,0.631-1.731,1.27-2.566,1.941c-0.178,0.143-0.292,0.428-0.333,0.665c-0.11,0.628,0.084,1.131,0.584,1.592
			c1.033,0.949,1.992,1.979,2.997,2.96c0.284,0.276,0.597,0.549,0.945,0.726c0.567,0.288,1.232,1.075,0.999,1.397
			c-0.413,0.569-0.887,1.353-1.463,1.484c-0.873,0.2-1.389,0.503-1.734,1.32c-0.176,0.416-0.639,0.705-0.944,1.074
			c-0.538,0.648-0.353,1.349,0.4,1.7c0.245,0.114,0.488,0.283,0.663,0.486c0.518,0.606,0.978,1.262,1.504,1.86
			c0.533,0.605,0.886,1.478,1.932,1.412c0.113-0.007,0.248,0.172,0.357,0.279c0.238,0.233,0.477,0.469,0.695,0.72
			c0.374,0.428,0.952,0.822,1.056,1.313c0.242,1.148-0.212,2.305-0.806,3.217c-0.754,1.154-1.831,2.103-2.791,3.118
			c-1.369,1.451-2.693,2.919-3.647,4.71c-0.408,0.765-0.749,1.425-0.439,2.288c0.051,0.144-0.094,0.347-0.088,0.521
			c0.014,0.427,0.044,0.855,0.106,1.277c0.039,0.266,0.136,0.523,0.225,0.779c0.153,0.441,0.194,1.03,0.505,1.289
			c0.782,0.65,1.654,1.218,2.556,1.696c1.01,0.537,1.941,1.141,2.666,2.03c0.361,0.443,0.766,0.773,1.343,0.935
			c0.429,0.12,0.858,0.35,1.208,0.63c0.914,0.732,1.871,1.271,3.1,1.146c0.205-0.021,0.43,0.069,0.636,0.138
			c0.429,0.143,0.884,0.494,1.271,0.427c1.467-0.256,2.639,0.892,4.062,0.757c0.136-0.013,0.301,0.178,0.438,0.292
			c0.543,0.456,1.126,0.699,1.87,0.602c0.459-0.06,0.943,0.037,1.411,0.098c0.528,0.069,1.047,0.215,1.576,0.26
			c1.023,0.088,2.053,0.103,3.076,0.2c0.565,0.055,1.123,0.328,1.677,0.307c1.34-0.053,2.652-0.084,3.965,0.325
			c0.67,0.209,1.53-0.028,2.104,0.294c0.942,0.529,2.054,0.143,2.933,0.751c0.099,0.068,0.271,0.044,0.409,0.038
			c0.438-0.016,0.877-0.043,1.315-0.066c1.082-0.059,2.146-0.043,3.103,0.589c0.173,0.114,0.405,0.152,0.617,0.188
			c0.759,0.127,1.529,0.199,2.279,0.366c0.611,0.137,1.187,0.44,1.799,0.562c0.864,0.173,1.749,0.244,2.624,0.37
			c0.107,0.016,0.2,0.117,0.309,0.157c0.271,0.101,0.545,0.194,0.821,0.28c0.335,0.105,0.673,0.199,1.009,0.302
			c0.167,0.051,0.329,0.145,0.498,0.158c0.966,0.08,1.922,0.17,2.761,0.739c0.227,0.153,0.508,0.338,0.756,0.326
			c0.567-0.027,0.991,0.208,1.403,0.534c0.188,0.147,0.376,0.298,0.579,0.422c0.69,0.42,1.339,0.86,2.193,1.004
			c1.187,0.2,2.34,0.598,3.499,0.938c0.419,0.124,0.805,0.352,1.219,0.493c0.915,0.312,1.863,0.539,2.748,0.918
			c0.531,0.228,1.017,0.364,1.548,0.151c0.755-0.302,1.518-0.292,2.297-0.142c0.894,0.171,1.78,0.207,2.665-0.082
			c0.298-0.097,1.779-1.537,1.799-1.844c0.009-0.136-0.037-0.275-0.062-0.412c-0.115-0.67-0.284-1.335-0.339-2.01
			c-0.244-2.994-1.735-5.481-3.383-7.827c-2.328-3.315-4.428-6.738-6.166-10.398c-1.275-2.688-2.574-5.373-4.039-7.961
			c-1.754-3.099-2.932-6.335-3.186-9.9c-0.047-0.67-0.201-1.344-0.391-1.99c-0.884-3.022-1.102-6.085-0.677-9.203
			c0.08-0.587,0.075-1.198,0.017-1.789c-0.221-2.227-0.197-4.447,0.364-6.615c0.407-1.574,0.689-3.155,0.856-4.768
			c0.069-0.673,0.226-1.343,0.408-1.995c0.431-1.536,0.931-3.054,1.349-4.593c0.875-3.224,1.783-6.433,3.363-9.403
			c0.187-0.352,0.311-0.735,0.467-1.103c0.545-1.286,1.1-2.568,1.634-3.858c0.243-0.586,0.461-1.184,0.671-1.783
			c0.442-1.261,0.833-2.541,1.319-3.785c0.405-1.038,0.998-2.007,1.361-3.057c0.695-2.003,1.622-3.864,2.908-5.553
			c0.237-0.312,0.395-0.688,0.566-1.047c0.646-1.348,1.285-2.699,1.926-4.05c0.23-0.485,0.504-0.956,0.676-1.461
			c0.683-2.003,1.362-4.009,1.974-6.034c0.146-0.483,0.071-1.052,0.017-1.573c-0.085-0.811-0.236-1.614-0.366-2.42
			c-0.033-0.21-0.019-0.501-0.147-0.61c-0.527-0.445-1.029-0.967-1.799-0.979c-1.02-0.017-2.039-0.044-3.059-0.048
			c-0.19-0.001-0.382,0.082-0.57,0.137c-0.374,0.11-0.745,0.23-1.119,0.341c-0.719,0.212-1.502,0.307-2.142,0.662
			c-0.663,0.368-1.263,0.71-2.053,0.625c-0.231-0.024-0.521,0.096-0.72,0.239c-0.767,0.552-1.606,0.71-2.533,0.65
			c-0.333-0.021-0.688,0.122-1.015,0.24c-0.521,0.188-1.011,0.521-1.544,0.612c-1.339,0.228-2.276,1.17-3.373,1.812
			c-0.486,0.284-0.901,0.558-1.469,0.493c-0.54-0.061-0.923,0.177-1.339,0.514c-0.63,0.511-1.356,0.902-2.044,1.341
			c-0.047,0.029-0.118,0.039-0.175,0.032c-0.604-0.081-1.02,0.219-1.397,0.646c-0.209,0.237-0.451,0.501-0.733,0.605
			c-1.234,0.459-1.82,1.862-3.168,2.137c-0.656,0.835-1.436,1.499-2.34,2.088c-0.919,0.598-1.683,1.441-2.487,2.206
			c-1.108,1.054-2.192,2.134-3.283,3.206c-0.068,0.067-0.097,0.174-0.159,0.249c-0.262,0.32-0.535,0.633-0.795,0.955
			c-0.36,0.447-0.724,0.893-1.062,1.355c-0.302,0.415-0.516,0.907-0.865,1.273c-1.379,1.442-2.579,3.001-3.459,4.805
			c-0.242,0.498-0.653,0.843-1.293,0.804C97.705,45.164,97.145,45.191,96.537,45.191z M80.494,41.802
			c0.761,0,1.521-0.009,2.28,0.003c0.617,0.009,1.096-0.216,1.533-0.666c0.537-0.554,1.163-1.021,1.729-1.548
			c0.754-0.704,1.569-1.366,2.203-2.168c0.614-0.776,1.073-1.665,1.944-2.222c0.243-0.156,0.536-0.399,0.592-0.65
			c0.164-0.738,0.72-1.125,1.215-1.581c0.68-0.624,1.538-1.022,2.07-1.853c0.309-0.481,0.895-0.783,1.345-1.178
			c0.659-0.577,1.349-1.128,1.952-1.76c0.587-0.614,1.453-0.927,1.851-1.745c0.058-0.12,0.265-0.164,0.398-0.25
			c0.314-0.203,0.647-0.385,0.938-0.619c0.568-0.46,1.059-0.979,1.84-1.166c0.636-0.153,1.164-0.571,1.652-1.102
			c0.699-0.757,1.333-1.766,2.622-1.655c0.105,0.009,0.231-0.07,0.326-0.14c0.516-0.376,1.013-0.778,1.538-1.14
			c0.666-0.459,1.148-1.243,2.127-1.174c0.173,0.013,0.357-0.23,0.548-0.336c0.394-0.219,0.793-0.427,1.192-0.633
			c0.344-0.178,0.78-0.268,1.019-0.535c0.743-0.834,1.827-1.062,2.703-1.648c0.016-0.011,0.042-0.006,0.057-0.017
			c0.193-0.146,0.388-0.288,0.576-0.439c0.396-0.316,0.757-0.693,1.193-0.936c0.274-0.151,0.485-0.229,0.571-0.58
			c0.164-0.663,0.604-1.222,1.27-1.307c0.763-0.099,1.203-0.647,1.799-0.97c0.103-0.056,0.188-0.211,0.212-0.333
			c0.129-0.7,0.512-1.199,1.133-1.534c0.1-0.054,0.201-0.147,0.248-0.248c0.366-0.782,0.569-1.618,0.201-2.423
			c-0.166-0.364-0.622-0.603-0.961-0.88c-0.263-0.216-0.535-0.424-0.827-0.595c-0.215-0.127-0.464-0.252-0.706-0.271
			c-1.291-0.1-2.519-0.413-3.699-0.95c-0.177-0.08-0.504-0.03-0.664,0.089c-0.53,0.392-1.109,0.635-1.736,0.445
			c-0.563-0.17-1.089-0.136-1.66-0.128c-1.119,0.014-2.101,0.518-3.171,0.668c-0.282,0.04-0.584,0.184-0.805,0.366
			c-0.416,0.344-0.863,0.465-1.388,0.43c-0.398-0.027-0.815-0.074-1.195,0.013c-0.403,0.092-0.867,0.24-1.139,0.523
			c-0.685,0.715-1.396,1.204-2.451,1.094c-0.786-0.083-1.534,0.28-2.044,0.782c-0.558,0.548-1.11,0.674-1.814,0.646
			c-0.343-0.014-0.707,0.061-1.03,0.178c-0.383,0.14-0.713,0.438-1.1,0.545c-1.13,0.315-2.242,0.644-3.304,1.178
			c-0.584,0.294-1.288,0.348-1.931,0.533c-0.223,0.063-0.429,0.192-0.638,0.301c-0.736,0.382-1.474,0.764-2.205,1.155
			c-0.154,0.082-0.326,0.181-0.419,0.318c-0.594,0.883-1.584,0.961-2.464,1.293c-0.672,0.254-1.331,0.602-1.907,1.027
			c-0.555,0.412-0.981,0.985-1.766,1.011c-0.191,0.006-0.427,0.163-0.555,0.32c-0.51,0.63-1.129,1.047-1.93,1.218
			c-0.201,0.043-0.379,0.215-0.557,0.344c-1.208,0.873-2.412,1.753-3.621,2.624c-0.144,0.103-0.31,0.223-0.475,0.238
			c-0.688,0.064-1.134,0.51-1.637,0.912c-0.453,0.362-1.037,0.559-1.5,0.913c-0.759,0.581-1.461,1.236-2.198,1.847
			c-0.149,0.124-0.348,0.187-0.522,0.28c-0.36,0.193-0.814,0.309-1.063,0.599c-0.8,0.933-1.549,1.89-2.51,2.692
			c-1.778,1.485-3.469,3.075-5.191,4.626c-0.114,0.104-0.192,0.248-0.281,0.378c-0.207,0.306-0.407,0.616-0.616,0.92
			c-0.213,0.31-0.434,0.612-0.651,0.918c-0.148,0.207-0.284,0.427-0.45,0.618c-0.481,0.555-1.046,0.973-1.69,1.362
			c-1.929,1.167-3.949,1.566-6.154,1.18c-0.528-0.092-1.074-0.163-1.606-0.136c-1.129,0.058-2.254,0.183-3.38,0.294
			c-0.129,0.012-0.283,0.08-0.368,0.174c-0.434,0.479-1.013,0.81-1.023,1.635c-0.01,0.827,0.116,1.189,0.86,1.562
			c1.056,0.528,2.145,1.034,3.09,1.727c1.09,0.801,1.03,1.725-0.071,2.461c-0.949,0.636-2.212,0.65-3.065,1.503
			c-0.061,0.061-0.19,0.047-0.283,0.08c-0.329,0.118-0.658,0.238-0.983,0.365c-0.184,0.072-0.355,0.202-0.543,0.233
			c-0.931,0.156-1.865,0.286-2.798,0.432c-0.156,0.024-0.311,0.075-0.46,0.131c-1.311,0.486-2.61,1.001-3.931,1.458
			c-1.369,0.475-2.777,0.544-4.203,0.261c-0.291-0.058-0.598-0.106-0.889-0.075c-2.481,0.26-4.971,0.473-7.435,0.848
			c-0.907,0.139-1.795,0.6-2.612,1.057c-0.403,0.227-0.75,0.372-1.202,0.393c-0.342,0.016-0.788,0.053-0.997,0.267
			c-0.617,0.632-1.286,1.285-1.663,2.062c-0.551,1.133-0.231,2.334,0.45,3.329c0.438,0.64,1.116,1.12,1.708,1.648
			c0.876,0.781,1.824,1.49,2.641,2.329c0.545,0.56,0.895,1.306,1.367,1.942c0.857,1.159,2.177,1.747,3.355,2.441
			c0.978,0.576,1.435,1.167,1.213,2.252c-0.077,0.375-0.154,0.764-0.322,1.101c-0.174,0.349-0.453,0.647-0.695,0.961
			c-0.564,0.729-1.092,1.505-2.205,1.389c-0.191-0.02-0.408,0.125-0.601,0.217c-0.534,0.256-1.049,0.709-1.595,0.747
			c-0.979,0.069-1.908,0.114-2.817,0.585c-0.799,0.414-1.709,0.604-2.541,0.963c-0.98,0.422-1.638,1.245-2.282,2.057
			c-0.098,0.123-0.094,0.341-0.102,0.517c-0.015,0.34-0.003,0.68-0.005,1.02c-0.004,1.056,0.418,2.008,1.171,2.641
			c0.965,0.812,2.085,1.462,3.201,2.069c0.945,0.514,0.968,1.533,1.477,2.279c0.024,0.036-0.018,0.114-0.023,0.174
			c-0.099,1.171-1.088,1.568-1.86,2.165c-0.575,0.444-1.08,0.984-1.673,1.4c-0.848,0.596-0.295,1.331-0.286,2.014
			c0,0.021-0.003,0.043,0.005,0.06c0.387,0.855,0.55,1.828,1.663,2.202c0.672,0.226,1.184,0.779,1.455,1.507
			c0.088,0.237,0.316,0.515,0.541,0.591c1.162,0.392,2.098,1.116,3.049,1.854c1.097,0.851,1.523,2.125,0.994,3.371
			c-0.2,0.472-0.321,1.152-0.684,1.34c-0.523,0.271-0.667,0.679-0.908,1.095c-0.277,0.479-0.567,0.951-0.89,1.398
			c-0.131,0.182-0.371,0.283-0.551,0.434c-0.405,0.34-0.821,0.671-1.199,1.039c-0.282,0.276-0.491,0.627-0.77,0.907
			c-1.309,1.32-2.929,2.325-3.835,4.055c-0.475,0.905-0.763,1.872-1.006,2.823c-0.232,0.907-0.079,1.913-0.085,2.876
			c-0.001,0.136,0.016,0.294,0.085,0.403c0.474,0.744,0.961,1.479,1.45,2.214c0.065,0.098,0.175,0.165,0.248,0.26
			c0.205,0.268,0.471,0.514,0.587,0.817c0.561,1.461,1.78,2.086,3.116,2.641c0.95,0.395,1.836,0.941,2.753,1.414
			c0.454,0.233,0.908,0.469,1.375,0.676c0.451,0.199,0.911,0.383,1.379,0.536c1.187,0.389,2.368,0.803,3.575,1.114
			c0.734,0.189,1.518,0.17,1.901,1.02c0.083,0.184,0.361,0.293,0.566,0.404c0.92,0.498,1.92,0.465,2.92,0.414
			c0.654-0.033,1.271-0.044,1.896,0.312c0.495,0.283,1.142,0.514,1.685,0.451c0.837-0.095,1.425,0.146,1.968,0.719
			c0.152,0.161,0.388,0.328,0.593,0.338c0.989,0.049,1.961,0.003,2.936,0.381c0.537,0.208,1.061,0.364,1.539,0.714
			c0.295,0.216,0.704,0.336,1.075,0.375c1.568,0.165,3.141,0.279,4.711,0.423c0.153,0.014,0.339,0.061,0.444,0.162
			c0.657,0.631,1.463,0.643,2.294,0.609c0.572-0.022,1.147,0.017,1.719-0.01c0.725-0.034,1.382,0.207,2.072,0.357
			c0.951,0.207,1.888,0.312,2.723,0.891c0.276,0.192,0.731,0.248,1.078,0.195c1.208-0.186,2.39-0.284,3.614-0.034
			c0.913,0.187,1.855-0.32,2.813,0.01c0.614,0.211,1.285,0.248,1.919,0.409c1.259,0.319,2.598,0.303,3.79,0.902
			c0.141,0.071,0.289,0.172,0.438,0.18c0.586,0.03,1.254,0.212,1.741-0.004c0.74-0.328,1.356-0.312,2.048,0.005
			c0.41,0.188,0.843,0.39,1.281,0.438c0.861,0.095,1.734,0.079,2.602,0.127c0.172,0.01,0.355,0.07,0.51,0.152
			c1.246,0.662,2.475,1.363,3.966,1.278c0.183-0.011,0.369,0.138,0.562,0.178c0.731,0.155,1.466,0.297,2.2,0.44
			c0.364,0.071,0.806,0.029,1.082,0.224c0.971,0.68,2.347,0.367,3.181,1.343c0.04,0.047,0.152,0.029,0.23,0.046
			c1.372,0.296,2.745,0.593,4.117,0.889c0.812,0.174,1.617,0.398,2.438,0.5c0.451,0.055,0.85,0.104,1.195,0.428
			c0.679,0.638,1.431,1.192,2.423,1.037c1.135-0.179,2.09,0.37,2.827,0.976c1.009,0.829,2.182,0.992,3.307,1.19
			c1.062,0.187,1.952,0.409,2.631,1.297c0.187,0.244,0.669,0.514,0.889,0.432c0.63-0.235,1.112-0.084,1.619,0.25
			c0.123,0.082,0.304,0.079,0.459,0.109c0.779,0.151,1.411,0.581,1.821,1.222c0.276,0.432,0.553,0.647,1.049,0.607
			c0.768-0.061,1.435,0.216,2.107,0.562c0.653,0.337,1.249,0.729,2.062,0.838c1.546,0.207,3.088,0.594,4.567,1.094
			c1.888,0.638,3.387,2.045,5.294,2.744c2.313,0.849,4.503,2.031,7.046,2.084c0.276,0.006,0.55,0.113,0.827,0.139
			c0.354,0.031,0.712,0.036,1.068,0.036c1.035,0,2.07-0.008,3.106-0.011c0.177-0.001,0.367,0.054,0.53,0.008
			c0.887-0.251,1.764-0.54,2.651-0.788c0.777-0.217,1.094-0.895,1.364-1.503c0.268-0.602,0.427-1.287,0.09-1.998
			c-0.131-0.275-0.062-0.759,0.103-1.036c0.317-0.534,0.178-0.948-0.137-1.372c-0.236-0.319-0.468-0.652-0.756-0.922
			c-0.538-0.504-1.136-0.945-1.672-1.452c-0.69-0.651-1.43-1.17-2.407-1.285c-0.215-0.025-0.444-0.161-0.611-0.309
			c-0.559-0.496-1.083-1.029-1.641-1.526c-0.122-0.108-0.338-0.194-0.492-0.171c-1.079,0.168-1.72-0.644-2.471-1.139
			c-0.604-0.398-1.182-0.686-1.913-0.717c-0.444-0.019-0.904-0.123-1.32-0.283c-0.738-0.285-1.427-0.707-2.277-0.534
			c-0.177,0.035-0.404-0.044-0.574-0.135c-1.169-0.627-2.318-1.292-3.498-1.897c-0.393-0.201-0.851-0.35-1.286-0.371
			c-0.572-0.028-1.079-0.123-1.592-0.41c-0.621-0.348-1.299-0.604-1.968-0.855c-0.779-0.292-1.577-0.535-2.366-0.8
			c-0.334-0.112-0.663-0.244-1.003-0.337c-0.997-0.274-2.036-0.441-2.986-0.828c-0.704-0.287-1.371-0.511-2.13-0.458
			c-0.338,0.023-0.688,0.049-1.018-0.009c-0.343-0.061-0.755-0.132-0.982-0.354c-0.4-0.394-0.866-0.416-1.353-0.527
			c-1.024-0.234-2.028-0.559-3.044-0.836c-0.474-0.13-0.947-0.289-1.431-0.339c-1.268-0.132-2.567-0.086-3.804-0.348
			c-1.229-0.26-2.386-0.743-3.674-0.922c-1.208-0.168-2.402-0.286-3.614-0.316c-0.159-0.004-0.355,0.037-0.472-0.038
			c-0.863-0.556-1.823-0.32-2.748-0.376c-0.274-0.017-0.548-0.067-0.819-0.119c-0.462-0.087-0.918-0.237-1.383-0.271
			c-0.657-0.048-1.32,0.009-1.979-0.022c-0.288-0.014-0.596-0.087-0.852-0.216c-0.99-0.496-2.002-0.848-3.136-0.793
			c-0.679,0.032-1.329,0.016-2.032-0.164c-1.516-0.386-3.12-0.414-4.652-0.751c-2.078-0.456-4.197-0.744-6.239-1.314
			c-1.765-0.492-3.487-1.01-5.34-0.835c-0.08,0.008-0.165,0.018-0.239-0.001c-0.3-0.079-0.639-0.104-0.889-0.265
			c-1.067-0.684-2.158-1.257-3.482-1.154c-0.094,0.008-0.191-0.051-0.289-0.069c-0.558-0.109-1.118-0.203-1.672-0.326
			c-0.876-0.194-1.763-0.359-2.616-0.63c-0.56-0.178-1.042-0.621-1.604-0.758c-0.563-0.136-1.136-0.206-1.71-0.357
			c-1.098-0.29-1.851-1.094-2.829-1.541c-0.824-0.376-1.235-1.3-2.229-1.604c-0.802-0.245-1.458-0.991-2.156-1.545
			c-0.45-0.356-0.851-0.775-1.287-1.151c-0.425-0.365-0.67-0.729-0.415-1.344c0.121-0.293,0.019-0.702-0.05-1.044
			c-0.141-0.693-0.334-1.377-0.492-2.066c-0.02-0.085,0.021-0.204,0.073-0.28c0.417-0.614,0.766-1.303,1.285-1.816
			c1.132-1.122,2.312-2.203,3.544-3.213c1.61-1.32,3.23-2.628,3.99-4.645c0.299-0.794,0.826-1.451,0.785-2.466
			c-0.053-1.308-0.76-2.245-1.301-3.245c-0.437-0.806-1.299-1.358-1.853-2.185c-0.501-0.747-1.483-1.169-2.244-1.747
			c-0.709-0.539-1.446-1.05-2.093-1.656c-0.492-0.461-0.519-1.105-0.149-1.433c0.925-0.82,1.837-1.663,2.828-2.399
			c1.213-0.902,1.768-2.398,1.258-3.808c-0.07-0.194-0.224-0.371-0.371-0.525c-0.543-0.568-1.154-1.081-1.638-1.695
			c-0.799-1.012-1.75-1.847-2.761-2.625c-0.439-0.338-0.795-1.15-0.68-1.603c0.17-0.665,0.738-1.12,1.457-1.229
			c0.245-0.036,0.474-0.179,0.708-0.279c0.56-0.24,1.098-0.611,1.68-0.697c0.888-0.131,1.778-0.02,2.667-0.416
			c1.021-0.454,2.149-0.63,3.062-1.378c1.184-0.972,1.98-2.096,1.746-3.694c-0.124-0.845-0.41-1.665-0.532-2.51
			c-0.181-1.256-0.735-2.254-1.768-2.997c-0.188-0.136-0.292-0.385-0.473-0.537c-0.874-0.74-1.351-1.929-2.571-2.278
			c-0.072-0.021-0.135-0.086-0.193-0.14c-1.225-1.135-2.461-2.258-3.668-3.412c-0.612-0.585-0.583-1.761,0.081-2.294
			c1.118-0.898,2.373-1.498,3.851-1.53c0.432-0.01,0.97,0.05,1.27-0.175c0.557-0.417,1.127-0.444,1.75-0.435
			c0.7,0.011,1.402,0.035,2.099-0.012c0.337-0.023,0.679-0.163,0.989-0.311c0.408-0.194,0.773-0.609,1.182-0.645
			c1.067-0.091,2.153,0.033,3.168-0.444c0.099-0.046,0.24,0.008,0.356-0.015c0.174-0.033,0.394-0.041,0.505-0.149
			c0.5-0.491,1.111-0.474,1.737-0.459c0.64,0.014,1.287,0.06,1.918-0.014c0.601-0.068,1.188-0.268,1.778-0.422
			c0.058-0.015,0.136-0.114,0.135-0.173c-0.007-0.434,0.292-0.391,0.577-0.399c0.337-0.01,0.704,0.037,1.004-0.079
			c0.828-0.321,1.625-0.724,2.442-1.076c0.452-0.194,1.012-0.245,1.364-0.546c0.709-0.605,1.467-0.775,2.369-0.777
			c0.441-0.001,0.905-0.312,1.316-0.556c0.279-0.166,0.472-0.473,0.729-0.686c0.595-0.495,0.753-1.899,0.171-2.315
			c-0.611-0.438-1.114-0.933-1.552-1.543c-0.288-0.402-0.651-0.711-0.377-1.261c0.29-0.582,0.709-0.945,1.402-0.93
			C78.973,41.814,79.734,41.801,80.494,41.802z"/>
		<path fill-rule="evenodd" clip-rule="evenodd" d="M96.537,45.191c0.607,0,1.168-0.027,1.726,0.007
			c0.64,0.039,1.051-0.306,1.293-0.804c0.88-1.804,2.08-3.362,3.459-4.805c0.35-0.366,0.563-0.858,0.865-1.273
			c0.339-0.463,0.702-0.908,1.062-1.355c0.26-0.322,0.533-0.635,0.795-0.955c0.062-0.075,0.091-0.182,0.159-0.249
			c1.091-1.072,2.175-2.152,3.283-3.206c0.805-0.765,1.568-1.608,2.487-2.206c0.904-0.589,1.684-1.253,2.34-2.088
			c1.348-0.274,1.934-1.678,3.168-2.137c0.282-0.104,0.524-0.368,0.733-0.605c0.378-0.428,0.793-0.728,1.397-0.646
			c0.057,0.007,0.128-0.003,0.175-0.032c0.688-0.438,1.414-0.83,2.044-1.341c0.416-0.337,0.799-0.574,1.339-0.514
			c0.567,0.064,0.982-0.209,1.469-0.493c1.097-0.642,2.034-1.584,3.373-1.812c0.533-0.091,1.022-0.424,1.544-0.612
			c0.327-0.118,0.682-0.262,1.015-0.24c0.927,0.06,1.767-0.099,2.533-0.65c0.199-0.144,0.488-0.264,0.72-0.239
			c0.79,0.085,1.39-0.257,2.053-0.625c0.64-0.355,1.423-0.45,2.142-0.662c0.374-0.11,0.745-0.23,1.119-0.341
			c0.188-0.055,0.38-0.138,0.57-0.137c1.02,0.004,2.039,0.031,3.059,0.048c0.77,0.013,1.271,0.534,1.799,0.979
			c0.129,0.109,0.114,0.4,0.147,0.61c0.13,0.806,0.281,1.609,0.366,2.42c0.055,0.521,0.13,1.09-0.017,1.573
			c-0.611,2.025-1.291,4.031-1.974,6.034c-0.172,0.505-0.445,0.976-0.676,1.461c-0.641,1.351-1.279,2.702-1.926,4.05
			c-0.172,0.358-0.329,0.735-0.566,1.047c-1.286,1.688-2.213,3.55-2.908,5.553c-0.363,1.05-0.956,2.019-1.361,3.057
			c-0.486,1.244-0.877,2.524-1.319,3.785c-0.21,0.6-0.428,1.197-0.671,1.783c-0.534,1.29-1.089,2.572-1.634,3.858
			c-0.156,0.367-0.28,0.751-0.467,1.103c-1.58,2.971-2.488,6.18-3.363,9.403c-0.418,1.539-0.918,3.057-1.349,4.593
			c-0.183,0.652-0.339,1.322-0.408,1.995c-0.167,1.612-0.449,3.193-0.856,4.768c-0.562,2.168-0.585,4.389-0.364,6.615
			c0.059,0.591,0.063,1.202-0.017,1.789c-0.425,3.118-0.207,6.181,0.677,9.203c0.189,0.646,0.344,1.32,0.391,1.99
			c0.254,3.565,1.432,6.802,3.186,9.9c1.465,2.588,2.764,5.273,4.039,7.961c1.738,3.66,3.838,7.083,6.166,10.398
			c1.647,2.346,3.139,4.833,3.383,7.827c0.055,0.675,0.224,1.34,0.339,2.01c0.024,0.137,0.07,0.276,0.062,0.412
			c-0.02,0.307-1.501,1.747-1.799,1.844c-0.885,0.289-1.771,0.253-2.665,0.082c-0.779-0.15-1.542-0.16-2.297,0.142
			c-0.531,0.213-1.017,0.076-1.548-0.151c-0.885-0.379-1.833-0.606-2.748-0.918c-0.414-0.142-0.8-0.369-1.219-0.493
			c-1.159-0.341-2.312-0.738-3.499-0.938c-0.854-0.144-1.503-0.584-2.193-1.004c-0.203-0.124-0.392-0.274-0.579-0.422
			c-0.412-0.326-0.836-0.562-1.403-0.534c-0.248,0.012-0.529-0.173-0.756-0.326c-0.839-0.569-1.795-0.659-2.761-0.739
			c-0.169-0.014-0.331-0.107-0.498-0.158c-0.336-0.103-0.674-0.196-1.009-0.302c-0.276-0.086-0.551-0.18-0.821-0.28
			c-0.108-0.04-0.201-0.142-0.309-0.157c-0.875-0.126-1.76-0.197-2.624-0.37c-0.612-0.122-1.188-0.426-1.799-0.562
			c-0.75-0.167-1.521-0.239-2.279-0.366c-0.212-0.036-0.444-0.074-0.617-0.188c-0.956-0.632-2.021-0.647-3.103-0.589
			c-0.438,0.023-0.877,0.051-1.315,0.066c-0.138,0.006-0.311,0.03-0.409-0.038c-0.879-0.608-1.99-0.222-2.933-0.751
			c-0.573-0.322-1.434-0.085-2.104-0.294c-1.312-0.409-2.625-0.378-3.965-0.325c-0.554,0.021-1.111-0.252-1.677-0.307
			c-1.022-0.098-2.052-0.112-3.076-0.2c-0.529-0.045-1.048-0.19-1.576-0.26c-0.468-0.061-0.952-0.157-1.411-0.098
			c-0.744,0.098-1.327-0.146-1.87-0.602c-0.137-0.114-0.302-0.305-0.438-0.292c-1.424,0.135-2.596-1.013-4.062-0.757
			c-0.387,0.067-0.842-0.284-1.271-0.427c-0.206-0.068-0.431-0.159-0.636-0.138c-1.229,0.125-2.186-0.414-3.1-1.146
			c-0.35-0.28-0.779-0.51-1.208-0.63c-0.577-0.161-0.981-0.491-1.343-0.935c-0.725-0.89-1.656-1.493-2.666-2.03
			c-0.901-0.479-1.773-1.046-2.556-1.696c-0.311-0.259-0.352-0.848-0.505-1.289c-0.088-0.256-0.186-0.514-0.225-0.779
			c-0.062-0.422-0.092-0.851-0.106-1.277c-0.006-0.174,0.14-0.377,0.088-0.521c-0.309-0.863,0.032-1.523,0.439-2.288
			c0.954-1.791,2.278-3.259,3.647-4.71c0.96-1.016,2.037-1.964,2.791-3.118c0.594-0.912,1.048-2.068,0.806-3.217
			c-0.104-0.491-0.682-0.886-1.056-1.313c-0.219-0.251-0.457-0.486-0.695-0.72c-0.109-0.107-0.244-0.286-0.357-0.279
			c-1.046,0.065-1.398-0.807-1.932-1.412c-0.526-0.599-0.986-1.254-1.504-1.86c-0.175-0.203-0.418-0.372-0.663-0.486
			c-0.753-0.352-0.938-1.052-0.4-1.7c0.306-0.369,0.768-0.658,0.944-1.074c0.345-0.817,0.861-1.12,1.734-1.32
			c0.576-0.132,1.05-0.915,1.463-1.484c0.233-0.322-0.432-1.109-0.999-1.397c-0.349-0.177-0.661-0.449-0.945-0.726
			c-1.005-0.98-1.964-2.011-2.997-2.96c-0.5-0.461-0.694-0.964-0.584-1.592c0.042-0.237,0.155-0.522,0.333-0.665
			c0.835-0.672,1.699-1.311,2.566-1.941c0.185-0.134,0.429-0.184,0.642-0.283c0.268-0.126,0.627-0.195,0.775-0.408
			c0.404-0.583,0.957-0.646,1.572-0.628c0.138,0.004,0.325,0.017,0.406-0.062c0.883-0.847,2.221-1.084,2.912-2.179
			c0.062-0.1,0.164-0.216,0.153-0.314c-0.105-0.94-0.087-1.917-0.995-2.574c-0.334-0.24-0.539-0.653-0.822-0.97
			c-0.288-0.322-0.549-0.721-0.912-0.912c-0.998-0.525-1.768-1.259-2.367-2.198c-0.102-0.159-0.261-0.285-0.41-0.406
			c-0.277-0.223-0.608-0.393-0.843-0.651c-1.312-1.451-1.792-3.168-1.506-5.092c0.103-0.69,1.335-1.694,2.047-1.665
			c0.595,0.024,1.039-0.167,1.409-0.626c0.211-0.263,0.537-0.441,0.714-0.72c0.653-1.028,1.626-1.095,2.71-1.085
			c1.599,0.014,3.197-0.089,4.797-0.153c0.191-0.008,0.466-0.024,0.555-0.146c0.374-0.506,0.893-0.454,1.409-0.46
			c0.521-0.006,1.041-0.044,1.56-0.021c0.767,0.032,1.46-0.036,1.965-0.739c0.121-0.168,0.455-0.228,0.699-0.251
			c0.607-0.058,1.209,0.012,1.724-0.497c0.236-0.232,0.717-0.199,1.061-0.348c0.604-0.261,1.238-0.5,1.765-0.881
			c0.356-0.259,0.562-0.736,0.812-1.131c0.367-0.581-0.096-0.851-0.45-1.18c-0.701-0.653-1.395-1.317-2.064-2.003
			c-0.536-0.548-0.519-1.349,0.02-1.878c0.384-0.377,0.744-0.818,1.204-1.062c0.544-0.288,1.182-0.399,1.783-0.578
			c0.15-0.044,0.37,0.009,0.461-0.082C94.49,44.934,95.592,45.367,96.537,45.191z"/>
		<path fill-rule="evenodd" clip-rule="evenodd" d="M80.494,41.802c-0.76-0.001-1.521,0.013-2.28-0.004
			c-0.693-0.016-1.112,0.348-1.402,0.93c-0.274,0.55,0.089,0.858,0.377,1.261c0.438,0.61,0.94,1.105,1.552,1.543
			c0.582,0.416,0.424,1.82-0.171,2.315c-0.257,0.213-0.449,0.52-0.729,0.686c-0.411,0.243-0.875,0.555-1.316,0.556
			c-0.902,0.002-1.66,0.172-2.369,0.777c-0.353,0.301-0.912,0.352-1.364,0.546c-0.817,0.353-1.614,0.755-2.442,1.076
			c-0.3,0.116-0.667,0.069-1.004,0.079c-0.285,0.009-0.584-0.034-0.577,0.399c0.001,0.059-0.077,0.158-0.135,0.173
			c-0.59,0.154-1.177,0.354-1.778,0.422c-0.632,0.073-1.279,0.027-1.918,0.014c-0.625-0.015-1.236-0.032-1.737,0.459
			c-0.111,0.108-0.331,0.116-0.505,0.149c-0.116,0.022-0.258-0.031-0.356,0.015c-1.015,0.478-2.101,0.354-3.168,0.444
			c-0.408,0.035-0.773,0.45-1.182,0.645c-0.311,0.147-0.652,0.287-0.989,0.311c-0.696,0.047-1.399,0.022-2.099,0.012
			c-0.623-0.01-1.192,0.018-1.75,0.435c-0.3,0.225-0.838,0.165-1.27,0.175c-1.478,0.032-2.732,0.632-3.851,1.53
			c-0.665,0.533-0.693,1.709-0.081,2.294c1.207,1.154,2.443,2.277,3.668,3.412c0.058,0.054,0.121,0.118,0.193,0.14
			c1.22,0.35,1.697,1.538,2.571,2.278c0.18,0.152,0.284,0.401,0.473,0.537c1.033,0.743,1.587,1.741,1.768,2.997
			c0.122,0.845,0.408,1.665,0.532,2.51c0.234,1.599-0.562,2.723-1.746,3.694c-0.913,0.748-2.041,0.924-3.062,1.378
			c-0.889,0.396-1.778,0.285-2.667,0.416c-0.582,0.086-1.12,0.457-1.68,0.697c-0.234,0.101-0.463,0.243-0.708,0.279
			c-0.719,0.108-1.286,0.563-1.457,1.229c-0.116,0.452,0.24,1.265,0.68,1.603c1.012,0.778,1.962,1.613,2.761,2.625
			c0.484,0.614,1.095,1.127,1.638,1.695c0.147,0.154,0.3,0.331,0.371,0.525c0.51,1.409-0.045,2.905-1.258,3.808
			c-0.99,0.736-1.903,1.579-2.828,2.399c-0.369,0.327-0.343,0.972,0.149,1.433c0.647,0.606,1.384,1.117,2.093,1.656
			c0.761,0.578,1.743,1,2.244,1.747c0.554,0.826,1.417,1.379,1.853,2.185c0.541,1,1.248,1.938,1.301,3.245
			c0.041,1.015-0.486,1.672-0.785,2.466c-0.76,2.017-2.379,3.324-3.99,4.645c-1.232,1.01-2.413,2.091-3.544,3.213
			c-0.519,0.514-0.867,1.202-1.285,1.816c-0.052,0.076-0.093,0.195-0.073,0.28c0.158,0.689,0.351,1.373,0.492,2.066
			c0.069,0.342,0.171,0.751,0.05,1.044c-0.255,0.615-0.01,0.979,0.415,1.344c0.436,0.376,0.837,0.795,1.287,1.151
			c0.698,0.554,1.354,1.3,2.156,1.545c0.994,0.305,1.406,1.229,2.229,1.604c0.978,0.447,1.73,1.251,2.829,1.541
			c0.574,0.151,1.147,0.222,1.71,0.357c0.562,0.137,1.045,0.58,1.604,0.758c0.853,0.271,1.74,0.436,2.616,0.63
			c0.554,0.123,1.115,0.217,1.672,0.326c0.097,0.019,0.195,0.077,0.289,0.069c1.324-0.103,2.415,0.471,3.482,1.154
			c0.25,0.16,0.589,0.186,0.889,0.265c0.075,0.019,0.16,0.009,0.239,0.001c1.853-0.175,3.576,0.343,5.34,0.835
			c2.042,0.57,4.161,0.858,6.239,1.314c1.532,0.337,3.137,0.365,4.652,0.751c0.703,0.18,1.354,0.196,2.032,0.164
			c1.134-0.055,2.146,0.297,3.136,0.793c0.256,0.129,0.563,0.202,0.852,0.216c0.658,0.031,1.321-0.025,1.979,0.022
			c0.465,0.033,0.921,0.184,1.383,0.271c0.271,0.052,0.545,0.103,0.819,0.119c0.925,0.056,1.885-0.18,2.748,0.376
			c0.116,0.075,0.312,0.034,0.472,0.038c1.212,0.03,2.406,0.148,3.614,0.316c1.288,0.179,2.444,0.662,3.674,0.922
			c1.236,0.262,2.536,0.216,3.804,0.348c0.483,0.05,0.957,0.209,1.431,0.339c1.016,0.277,2.02,0.602,3.044,0.836
			c0.486,0.111,0.952,0.134,1.353,0.527c0.228,0.223,0.64,0.294,0.982,0.354c0.33,0.058,0.68,0.032,1.018,0.009
			c0.759-0.053,1.426,0.171,2.13,0.458c0.95,0.387,1.989,0.554,2.986,0.828c0.34,0.093,0.669,0.225,1.003,0.337
			c0.789,0.265,1.587,0.508,2.366,0.8c0.669,0.251,1.347,0.508,1.968,0.855c0.513,0.287,1.02,0.382,1.592,0.41
			c0.436,0.021,0.894,0.17,1.286,0.371c1.18,0.605,2.329,1.271,3.498,1.897c0.17,0.091,0.397,0.17,0.574,0.135
			c0.851-0.173,1.539,0.249,2.277,0.534c0.416,0.16,0.876,0.265,1.32,0.283c0.731,0.031,1.309,0.318,1.913,0.717
			c0.751,0.495,1.392,1.307,2.471,1.139c0.154-0.023,0.37,0.062,0.492,0.171c0.558,0.497,1.082,1.03,1.641,1.526
			c0.167,0.147,0.396,0.283,0.611,0.309c0.978,0.115,1.717,0.634,2.407,1.285c0.536,0.507,1.134,0.948,1.672,1.452
			c0.288,0.27,0.52,0.603,0.756,0.922c0.314,0.424,0.454,0.838,0.137,1.372c-0.165,0.277-0.233,0.761-0.103,1.036
			c0.337,0.711,0.178,1.396-0.09,1.998c-0.271,0.608-0.587,1.286-1.364,1.503c-0.888,0.248-1.765,0.537-2.651,0.788
			c-0.163,0.046-0.354-0.009-0.53-0.008c-1.036,0.003-2.071,0.011-3.106,0.011c-0.356,0-0.714-0.005-1.068-0.036
			c-0.277-0.025-0.551-0.133-0.827-0.139c-2.543-0.053-4.732-1.235-7.046-2.084c-1.907-0.699-3.406-2.106-5.294-2.744
			c-1.479-0.5-3.021-0.887-4.567-1.094c-0.812-0.108-1.408-0.501-2.062-0.838c-0.673-0.346-1.34-0.622-2.107-0.562
			c-0.496,0.04-0.772-0.176-1.049-0.607c-0.41-0.641-1.042-1.07-1.821-1.222c-0.155-0.03-0.336-0.027-0.459-0.109
			c-0.507-0.334-0.989-0.485-1.619-0.25c-0.22,0.082-0.702-0.188-0.889-0.432c-0.679-0.888-1.568-1.11-2.631-1.297
			c-1.125-0.198-2.298-0.361-3.307-1.19c-0.737-0.605-1.692-1.154-2.827-0.976c-0.992,0.155-1.744-0.399-2.423-1.037
			c-0.346-0.324-0.744-0.373-1.195-0.428c-0.821-0.102-1.627-0.326-2.438-0.5c-1.372-0.296-2.745-0.593-4.117-0.889
			c-0.078-0.017-0.19,0.001-0.23-0.046c-0.834-0.976-2.21-0.663-3.181-1.343c-0.276-0.194-0.718-0.152-1.082-0.224
			c-0.734-0.144-1.469-0.285-2.2-0.44c-0.192-0.04-0.379-0.188-0.562-0.178c-1.491,0.085-2.72-0.616-3.966-1.278
			c-0.154-0.082-0.338-0.143-0.51-0.152c-0.867-0.048-1.74-0.032-2.602-0.127c-0.438-0.048-0.871-0.25-1.281-0.438
			c-0.691-0.316-1.308-0.333-2.048-0.005c-0.487,0.216-1.155,0.034-1.741,0.004c-0.148-0.008-0.297-0.108-0.438-0.18
			c-1.192-0.6-2.531-0.583-3.79-0.902c-0.634-0.161-1.306-0.198-1.919-0.409c-0.958-0.33-1.9,0.177-2.813-0.01
			c-1.225-0.25-2.407-0.151-3.614,0.034c-0.347,0.053-0.801-0.003-1.078-0.195c-0.835-0.578-1.772-0.684-2.723-0.891
			c-0.689-0.15-1.347-0.392-2.072-0.357c-0.572,0.026-1.147-0.013-1.719,0.01c-0.831,0.033-1.637,0.021-2.294-0.609
			c-0.104-0.102-0.291-0.148-0.444-0.162c-1.57-0.144-3.144-0.258-4.711-0.423c-0.371-0.039-0.78-0.159-1.075-0.375
			c-0.479-0.35-1.002-0.506-1.539-0.714c-0.974-0.378-1.947-0.332-2.936-0.381c-0.205-0.01-0.441-0.177-0.593-0.338
			c-0.543-0.573-1.131-0.813-1.968-0.719c-0.543,0.062-1.189-0.168-1.685-0.451c-0.625-0.356-1.242-0.346-1.896-0.312
			c-1,0.051-2,0.084-2.92-0.414c-0.206-0.111-0.483-0.221-0.566-0.404c-0.383-0.85-1.167-0.83-1.901-1.02
			c-1.207-0.312-2.388-0.726-3.575-1.114c-0.468-0.153-0.928-0.337-1.379-0.536c-0.467-0.207-0.921-0.442-1.375-0.676
			c-0.917-0.473-1.804-1.02-2.753-1.414c-1.336-0.555-2.555-1.18-3.116-2.641c-0.117-0.304-0.383-0.55-0.587-0.817
			c-0.072-0.095-0.182-0.162-0.248-0.26c-0.489-0.734-0.977-1.47-1.45-2.214c-0.069-0.109-0.086-0.268-0.085-0.403
			c0.006-0.963-0.147-1.969,0.085-2.876c0.243-0.951,0.532-1.918,1.006-2.823c0.906-1.729,2.527-2.734,3.835-4.055
			c0.278-0.28,0.487-0.631,0.77-0.907c0.378-0.368,0.794-0.699,1.199-1.039c0.18-0.15,0.419-0.252,0.551-0.434
			c0.323-0.447,0.613-0.92,0.89-1.398c0.241-0.416,0.385-0.824,0.908-1.095c0.363-0.188,0.483-0.868,0.684-1.34
			c0.529-1.246,0.104-2.521-0.994-3.371c-0.951-0.737-1.887-1.462-3.049-1.854c-0.225-0.076-0.453-0.354-0.541-0.591
			c-0.271-0.728-0.783-1.281-1.455-1.507c-1.113-0.374-1.276-1.347-1.663-2.202c-0.008-0.017-0.004-0.039-0.005-0.06
			c-0.009-0.683-0.562-1.418,0.286-2.014c0.593-0.416,1.098-0.956,1.673-1.4c0.772-0.597,1.761-0.994,1.86-2.165
			c0.005-0.06,0.047-0.138,0.023-0.174c-0.508-0.746-0.532-1.766-1.477-2.279c-1.115-0.607-2.235-1.257-3.201-2.069
			c-0.752-0.633-1.175-1.585-1.171-2.641c0.001-0.34-0.01-0.68,0.005-1.02c0.008-0.176,0.004-0.394,0.102-0.517
			c0.644-0.812,1.302-1.635,2.282-2.057c0.831-0.358,1.742-0.549,2.541-0.963c0.909-0.471,1.838-0.516,2.817-0.585
			c0.546-0.038,1.061-0.491,1.595-0.747c0.193-0.092,0.41-0.236,0.601-0.217c1.113,0.116,1.641-0.66,2.205-1.389
			c0.243-0.313,0.521-0.612,0.695-0.961c0.168-0.337,0.245-0.726,0.322-1.101c0.222-1.085-0.235-1.676-1.213-2.252
			c-1.178-0.694-2.498-1.282-3.355-2.441c-0.472-0.637-0.822-1.383-1.367-1.942c-0.816-0.839-1.764-1.548-2.641-2.329
			c-0.592-0.528-1.271-1.009-1.708-1.648c-0.682-0.995-1.001-2.196-0.45-3.329c0.377-0.776,1.046-1.43,1.663-2.062
			c0.209-0.214,0.655-0.251,0.997-0.267c0.452-0.021,0.799-0.166,1.202-0.393c0.816-0.457,1.705-0.918,2.612-1.057
			c2.464-0.375,4.954-0.588,7.435-0.848c0.291-0.031,0.599,0.018,0.889,0.075c1.426,0.283,2.833,0.214,4.203-0.261
			c1.32-0.457,2.62-0.972,3.931-1.458c0.149-0.056,0.304-0.106,0.46-0.131c0.933-0.146,1.867-0.275,2.798-0.432
			c0.188-0.031,0.359-0.161,0.543-0.233c0.325-0.127,0.654-0.247,0.983-0.365c0.093-0.033,0.223-0.02,0.283-0.08
			c0.853-0.853,2.116-0.867,3.065-1.503c1.101-0.736,1.161-1.66,0.071-2.461c-0.945-0.692-2.034-1.198-3.09-1.727
			c-0.744-0.372-0.871-0.734-0.86-1.562c0.01-0.825,0.589-1.155,1.023-1.635c0.085-0.094,0.239-0.162,0.368-0.174
			c1.125-0.111,2.251-0.236,3.38-0.294c0.532-0.027,1.078,0.044,1.606,0.136c2.205,0.387,4.226-0.013,6.154-1.18
			c0.644-0.39,1.209-0.808,1.69-1.362c0.167-0.191,0.302-0.411,0.45-0.618c0.218-0.306,0.438-0.608,0.651-0.918
			c0.209-0.304,0.409-0.614,0.616-0.92c0.088-0.13,0.167-0.274,0.281-0.378c1.723-1.551,3.413-3.141,5.191-4.626
			c0.961-0.803,1.71-1.76,2.51-2.692c0.249-0.29,0.703-0.405,1.063-0.599c0.174-0.094,0.374-0.156,0.522-0.28
			c0.737-0.61,1.439-1.266,2.198-1.847c0.463-0.354,1.047-0.551,1.5-0.913c0.503-0.402,0.949-0.848,1.637-0.912
			c0.165-0.016,0.331-0.136,0.475-0.238c1.209-0.871,2.413-1.751,3.621-2.624c0.178-0.129,0.355-0.301,0.557-0.344
			c0.801-0.171,1.42-0.588,1.93-1.218c0.128-0.157,0.363-0.314,0.555-0.32c0.784-0.025,1.211-0.599,1.766-1.011
			c0.576-0.426,1.235-0.773,1.907-1.027c0.88-0.332,1.87-0.41,2.464-1.293c0.093-0.138,0.265-0.236,0.419-0.318
			c0.731-0.392,1.469-0.773,2.205-1.155c0.209-0.108,0.415-0.237,0.638-0.301c0.644-0.186,1.347-0.239,1.931-0.533
			c1.062-0.534,2.174-0.862,3.304-1.178c0.387-0.107,0.717-0.405,1.1-0.545c0.323-0.117,0.688-0.191,1.03-0.178
			c0.704,0.028,1.257-0.098,1.814-0.646c0.51-0.502,1.258-0.865,2.044-0.782c1.055,0.11,1.767-0.379,2.451-1.094
			c0.271-0.283,0.735-0.432,1.139-0.523c0.38-0.087,0.797-0.04,1.195-0.013c0.524,0.035,0.972-0.086,1.388-0.43
			c0.221-0.183,0.522-0.326,0.805-0.366c1.07-0.15,2.052-0.654,3.171-0.668c0.571-0.008,1.097-0.042,1.66,0.128
			c0.627,0.189,1.206-0.054,1.736-0.445c0.16-0.119,0.487-0.169,0.664-0.089c1.181,0.537,2.408,0.851,3.699,0.95
			c0.242,0.019,0.491,0.144,0.706,0.271c0.292,0.171,0.564,0.379,0.827,0.595c0.339,0.277,0.795,0.516,0.961,0.88
			c0.368,0.805,0.165,1.641-0.201,2.423c-0.047,0.101-0.148,0.194-0.248,0.248c-0.621,0.335-1.004,0.834-1.133,1.534
			c-0.023,0.122-0.109,0.277-0.212,0.333c-0.596,0.322-1.036,0.871-1.799,0.97c-0.665,0.085-1.105,0.644-1.27,1.307
			c-0.086,0.351-0.297,0.429-0.571,0.58c-0.437,0.242-0.798,0.619-1.193,0.936c-0.188,0.151-0.383,0.294-0.576,0.439
			c-0.015,0.011-0.041,0.006-0.057,0.017c-0.876,0.586-1.96,0.814-2.703,1.648c-0.238,0.268-0.675,0.357-1.019,0.535
			c-0.399,0.206-0.799,0.414-1.192,0.633c-0.19,0.105-0.375,0.349-0.548,0.336c-0.979-0.069-1.461,0.715-2.127,1.174
			c-0.525,0.361-1.022,0.764-1.538,1.14c-0.095,0.069-0.221,0.148-0.326,0.14c-1.289-0.11-1.923,0.898-2.622,1.655
			c-0.488,0.53-1.017,0.948-1.652,1.102c-0.781,0.188-1.271,0.706-1.84,1.166c-0.29,0.234-0.623,0.416-0.938,0.619
			c-0.134,0.086-0.341,0.13-0.398,0.25c-0.397,0.818-1.264,1.131-1.851,1.745c-0.604,0.632-1.293,1.183-1.952,1.76
			c-0.45,0.395-1.036,0.696-1.345,1.178c-0.532,0.83-1.39,1.229-2.07,1.853c-0.495,0.456-1.051,0.843-1.215,1.581
			c-0.056,0.251-0.349,0.494-0.592,0.65c-0.871,0.557-1.33,1.445-1.944,2.222c-0.634,0.802-1.449,1.464-2.203,2.168
			c-0.565,0.527-1.191,0.994-1.729,1.548c-0.438,0.45-0.916,0.675-1.533,0.666C82.014,41.793,81.254,41.802,80.494,41.802z"/>
	</g>
</g>
<g id="Layer_20_copy_2_xA0_Image_1_">
</g>
</svg>
